<?xml version="1.0" encoding="UTF-8" standalone="no"?>
<svg
   width="1920pt"
   height="1080pt"
   viewBox="0 0 1920 1080"
   version="1.1"
   id="svg228"
   xmlns="http://www.w3.org/2000/svg"
   xmlns:svg="http://www.w3.org/2000/svg">
  <defs
     id="defs208">
    <clipPath
       id="clip-0">
      <path
         clip-rule="nonzero"
         d="M 564 448 L 771 448 L 771 614 L 564 614 Z M 564 448 "
         id="path1" />
    </clipPath>
    <clipPath
       id="clip-1">
      <path
         clip-rule="nonzero"
         d="M 616.253906 455.402344 C 611.9375 460.75 611.15625 468.039062 610.46875 474.871094 C 610.226562 477.140625 609.90625 479.640625 609.15625 482.308594 C 607.703125 487.480469 603.640625 491.542969 598.480469 493.019531 C 595.777344 493.789062 593.246094 494.117188 590.953125 494.359375 C 584.101562 495.046875 576.816406 495.828125 571.464844 500.144531 C 567.398438 503.445312 564.945312 508.652344 564.992188 513.875 C 565.039062 518.347656 566.617188 522.539062 570.011719 525.933594 C 573.402344 529.328125 577.597656 530.90625 582.070312 530.953125 C 587.289062 531 592.5 528.546875 595.800781 524.480469 C 600.117188 519.132812 600.898438 511.84375 601.585938 505.007812 C 601.824219 502.742188 602.148438 500.242188 602.898438 497.570312 C 604.351562 492.402344 608.414062 488.339844 613.574219 486.863281 C 616.277344 486.09375 618.808594 485.765625 621.101562 485.523438 C 627.953125 484.835938 635.238281 484.054688 640.589844 479.738281 C 644.65625 476.4375 647.109375 471.230469 647.0625 466.007812 C 647.015625 461.53125 645.4375 457.34375 642.042969 453.949219 C 638.648438 450.554688 634.457031 448.976562 629.984375 448.929688 C 629.9375 448.929688 629.886719 448.925781 629.839844 448.925781 C 624.664062 448.929688 619.523438 451.375 616.253906 455.402344 M 698.328125 455.492188 C 694.011719 460.839844 693.230469 468.128906 692.542969 474.960938 C 692.300781 477.230469 691.980469 479.730469 691.230469 482.398438 C 689.777344 487.566406 685.714844 491.632812 680.554688 493.105469 C 677.851562 493.878906 675.320312 494.207031 673.027344 494.449219 C 666.175781 495.136719 658.886719 495.917969 653.539062 500.234375 C 649.472656 503.535156 647.019531 508.742188 647.066406 513.964844 C 647.113281 518.4375 648.691406 522.628906 652.085938 526.023438 C 655.480469 529.414062 659.671875 530.996094 664.140625 531.042969 C 669.367188 531.089844 674.574219 528.636719 677.875 524.566406 C 682.191406 519.21875 682.972656 511.933594 683.660156 505.097656 C 683.902344 502.832031 684.222656 500.332031 684.972656 497.660156 C 686.425781 492.492188 690.484375 488.429688 695.648438 486.953125 C 698.351562 486.179688 700.882812 485.855469 703.175781 485.613281 C 710.027344 484.925781 717.3125 484.140625 722.660156 479.824219 C 726.730469 476.527344 729.183594 471.316406 729.136719 466.097656 C 729.089844 461.621094 727.511719 457.429688 724.117188 454.039062 C 720.722656 450.644531 716.53125 449.066406 712.058594 449.015625 C 712.011719 449.015625 711.964844 449.015625 711.914062 449.015625 C 706.742188 449.015625 701.597656 451.464844 698.328125 455.492188 M 739.363281 496.507812 C 735.050781 501.855469 734.269531 509.140625 733.578125 515.976562 C 733.339844 518.242188 733.019531 520.742188 732.269531 523.410156 C 730.8125 528.582031 726.753906 532.644531 721.589844 534.121094 C 718.886719 534.894531 716.359375 535.21875 714.0625 535.460938 C 707.210938 536.148438 699.925781 536.933594 694.578125 541.246094 C 690.511719 544.546875 688.054688 549.753906 688.101562 554.980469 C 688.148438 559.449219 689.730469 563.640625 693.121094 567.035156 C 696.515625 570.429688 700.707031 572.007812 705.179688 572.054688 C 710.402344 572.101562 715.609375 569.648438 718.910156 565.582031 C 723.226562 560.234375 724.007812 552.945312 724.695312 546.109375 C 724.9375 543.84375 725.257812 541.34375 726.007812 538.675781 C 727.464844 533.507812 731.523438 529.441406 736.6875 527.964844 C 739.390625 527.195312 741.917969 526.867188 744.214844 526.625 C 751.0625 525.9375 758.351562 525.15625 763.699219 520.839844 C 767.765625 517.539062 770.222656 512.332031 770.175781 507.109375 C 770.128906 502.636719 768.546875 498.445312 765.152344 495.050781 C 761.761719 491.65625 757.570312 490.078125 753.097656 490.03125 C 753.046875 490.03125 753 490.03125 752.949219 490.03125 C 747.773438 490.03125 742.636719 492.476562 739.363281 496.507812 M 623.105469 531.042969 C 618.632812 531.089844 614.441406 532.671875 611.050781 536.0625 C 607.65625 539.457031 606.074219 543.648438 606.027344 548.121094 C 605.980469 553.34375 608.4375 558.554688 612.503906 561.851562 C 617.851562 566.167969 625.140625 566.949219 631.988281 567.640625 C 634.285156 567.878906 636.816406 568.207031 639.515625 568.980469 C 644.679688 570.453125 648.738281 574.519531 650.195312 579.6875 C 650.945312 582.355469 651.265625 584.859375 651.507812 587.125 C 652.195312 593.960938 652.976562 601.246094 657.292969 606.59375 C 660.59375 610.660156 665.800781 613.117188 671.023438 613.070312 C 675.496094 613.019531 679.6875 611.441406 683.082031 608.050781 C 686.472656 604.65625 688.054688 600.464844 688.101562 595.992188 C 688.148438 590.769531 685.691406 585.5625 681.628906 582.261719 C 676.277344 577.945312 668.988281 577.164062 662.140625 576.472656 C 659.847656 576.230469 657.316406 575.90625 654.613281 575.132812 C 649.449219 573.65625 645.390625 569.59375 643.9375 564.425781 C 643.183594 561.757812 642.863281 559.253906 642.621094 556.988281 C 641.9375 550.15625 641.152344 542.867188 636.835938 537.519531 C 633.570312 533.492188 628.425781 531.042969 623.253906 531.042969 C 623.203125 531.042969 623.15625 531.042969 623.105469 531.042969 "
         id="path2" />
    </clipPath>
    <linearGradient
       id="linear-pattern-0"
       gradientUnits="userSpaceOnUse"
       x1="-0.000226224"
       y1="0"
       x2="1.000226"
       y2="0"
       gradientTransform="matrix(205.184113, 0, 0, 205.184113, 564.990418, 530.998718)">
      <stop
         offset="0"
         stop-color="rgb(13.725281%, 19.607544%, 41.567993%)"
         stop-opacity="1"
         id="stop2" />
      <stop
         offset="0.0625"
         stop-color="rgb(13.725281%, 19.607544%, 41.567993%)"
         stop-opacity="1"
         id="stop3" />
      <stop
         offset="0.078125"
         stop-color="rgb(13.725281%, 19.607544%, 41.567993%)"
         stop-opacity="1"
         id="stop4" />
      <stop
         offset="0.0859375"
         stop-color="rgb(13.725281%, 19.607544%, 41.567993%)"
         stop-opacity="1"
         id="stop5" />
      <stop
         offset="0.0898438"
         stop-color="rgb(14.117432%, 19.607544%, 41.567993%)"
         stop-opacity="1"
         id="stop6" />
      <stop
         offset="0.09375"
         stop-color="rgb(14.509583%, 19.607544%, 41.175842%)"
         stop-opacity="1"
         id="stop7" />
      <stop
         offset="0.0976562"
         stop-color="rgb(14.901733%, 19.607544%, 41.175842%)"
         stop-opacity="1"
         id="stop8" />
      <stop
         offset="0.101562"
         stop-color="rgb(15.293884%, 19.607544%, 41.175842%)"
         stop-opacity="1"
         id="stop9" />
      <stop
         offset="0.105469"
         stop-color="rgb(15.686035%, 19.215393%, 41.175842%)"
         stop-opacity="1"
         id="stop10" />
      <stop
         offset="0.109375"
         stop-color="rgb(16.078186%, 19.215393%, 40.783691%)"
         stop-opacity="1"
         id="stop11" />
      <stop
         offset="0.113281"
         stop-color="rgb(16.470337%, 19.215393%, 40.783691%)"
         stop-opacity="1"
         id="stop12" />
      <stop
         offset="0.117188"
         stop-color="rgb(16.862488%, 19.215393%, 40.783691%)"
         stop-opacity="1"
         id="stop13" />
      <stop
         offset="0.121094"
         stop-color="rgb(17.254639%, 19.215393%, 40.783691%)"
         stop-opacity="1"
         id="stop14" />
      <stop
         offset="0.125"
         stop-color="rgb(17.64679%, 19.215393%, 40.391541%)"
         stop-opacity="1"
         id="stop15" />
      <stop
         offset="0.128906"
         stop-color="rgb(18.03894%, 19.215393%, 40.391541%)"
         stop-opacity="1"
         id="stop16" />
      <stop
         offset="0.132812"
         stop-color="rgb(18.431091%, 19.215393%, 40.391541%)"
         stop-opacity="1"
         id="stop17" />
      <stop
         offset="0.136719"
         stop-color="rgb(18.823242%, 19.215393%, 40.391541%)"
         stop-opacity="1"
         id="stop18" />
      <stop
         offset="0.140625"
         stop-color="rgb(19.215393%, 19.215393%, 39.99939%)"
         stop-opacity="1"
         id="stop19" />
      <stop
         offset="0.144531"
         stop-color="rgb(19.607544%, 18.823242%, 39.99939%)"
         stop-opacity="1"
         id="stop20" />
      <stop
         offset="0.148438"
         stop-color="rgb(19.999695%, 18.823242%, 39.99939%)"
         stop-opacity="1"
         id="stop21" />
      <stop
         offset="0.152344"
         stop-color="rgb(20.391846%, 18.823242%, 39.99939%)"
         stop-opacity="1"
         id="stop22" />
      <stop
         offset="0.15625"
         stop-color="rgb(20.783997%, 18.823242%, 39.607239%)"
         stop-opacity="1"
         id="stop23" />
      <stop
         offset="0.160156"
         stop-color="rgb(21.176147%, 18.823242%, 39.607239%)"
         stop-opacity="1"
         id="stop24" />
      <stop
         offset="0.164062"
         stop-color="rgb(21.568298%, 18.823242%, 39.607239%)"
         stop-opacity="1"
         id="stop25" />
      <stop
         offset="0.167969"
         stop-color="rgb(21.960449%, 18.823242%, 39.607239%)"
         stop-opacity="1"
         id="stop26" />
      <stop
         offset="0.171875"
         stop-color="rgb(22.3526%, 18.823242%, 39.215088%)"
         stop-opacity="1"
         id="stop27" />
      <stop
         offset="0.175781"
         stop-color="rgb(22.744751%, 18.823242%, 39.215088%)"
         stop-opacity="1"
         id="stop28" />
      <stop
         offset="0.179688"
         stop-color="rgb(23.136902%, 18.823242%, 39.215088%)"
         stop-opacity="1"
         id="stop29" />
      <stop
         offset="0.183594"
         stop-color="rgb(23.529053%, 18.431091%, 38.822937%)"
         stop-opacity="1"
         id="stop30" />
      <stop
         offset="0.1875"
         stop-color="rgb(23.921204%, 18.431091%, 38.822937%)"
         stop-opacity="1"
         id="stop31" />
      <stop
         offset="0.191406"
         stop-color="rgb(24.313354%, 18.431091%, 38.822937%)"
         stop-opacity="1"
         id="stop32" />
      <stop
         offset="0.195312"
         stop-color="rgb(24.705505%, 18.431091%, 38.822937%)"
         stop-opacity="1"
         id="stop33" />
      <stop
         offset="0.199219"
         stop-color="rgb(25.097656%, 18.431091%, 38.430786%)"
         stop-opacity="1"
         id="stop34" />
      <stop
         offset="0.203125"
         stop-color="rgb(25.489807%, 18.431091%, 38.430786%)"
         stop-opacity="1"
         id="stop35" />
      <stop
         offset="0.207031"
         stop-color="rgb(25.881958%, 18.431091%, 38.430786%)"
         stop-opacity="1"
         id="stop36" />
      <stop
         offset="0.210938"
         stop-color="rgb(26.274109%, 18.431091%, 38.430786%)"
         stop-opacity="1"
         id="stop37" />
      <stop
         offset="0.214844"
         stop-color="rgb(26.66626%, 18.431091%, 38.038635%)"
         stop-opacity="1"
         id="stop38" />
      <stop
         offset="0.21875"
         stop-color="rgb(27.058411%, 18.431091%, 38.038635%)"
         stop-opacity="1"
         id="stop39" />
      <stop
         offset="0.222656"
         stop-color="rgb(27.450562%, 18.431091%, 38.038635%)"
         stop-opacity="1"
         id="stop40" />
      <stop
         offset="0.226562"
         stop-color="rgb(27.842712%, 18.03894%, 38.038635%)"
         stop-opacity="1"
         id="stop41" />
      <stop
         offset="0.230469"
         stop-color="rgb(28.234863%, 18.03894%, 37.646484%)"
         stop-opacity="1"
         id="stop42" />
      <stop
         offset="0.234375"
         stop-color="rgb(28.627014%, 18.03894%, 37.646484%)"
         stop-opacity="1"
         id="stop43" />
      <stop
         offset="0.238281"
         stop-color="rgb(29.019165%, 18.03894%, 37.646484%)"
         stop-opacity="1"
         id="stop44" />
      <stop
         offset="0.242188"
         stop-color="rgb(29.411316%, 18.03894%, 37.646484%)"
         stop-opacity="1"
         id="stop45" />
      <stop
         offset="0.246094"
         stop-color="rgb(29.803467%, 18.03894%, 37.254333%)"
         stop-opacity="1"
         id="stop46" />
      <stop
         offset="0.25"
         stop-color="rgb(30.195618%, 18.03894%, 37.254333%)"
         stop-opacity="1"
         id="stop47" />
      <stop
         offset="0.253906"
         stop-color="rgb(30.587769%, 18.03894%, 37.254333%)"
         stop-opacity="1"
         id="stop48" />
      <stop
         offset="0.257812"
         stop-color="rgb(30.979919%, 18.03894%, 37.254333%)"
         stop-opacity="1"
         id="stop49" />
      <stop
         offset="0.261719"
         stop-color="rgb(31.37207%, 18.03894%, 36.862183%)"
         stop-opacity="1"
         id="stop50" />
      <stop
         offset="0.265625"
         stop-color="rgb(31.764221%, 17.64679%, 36.862183%)"
         stop-opacity="1"
         id="stop51" />
      <stop
         offset="0.269531"
         stop-color="rgb(32.156372%, 17.64679%, 36.862183%)"
         stop-opacity="1"
         id="stop52" />
      <stop
         offset="0.273438"
         stop-color="rgb(32.548523%, 17.64679%, 36.862183%)"
         stop-opacity="1"
         id="stop53" />
      <stop
         offset="0.277344"
         stop-color="rgb(32.940674%, 17.64679%, 36.470032%)"
         stop-opacity="1"
         id="stop54" />
      <stop
         offset="0.28125"
         stop-color="rgb(33.332825%, 17.64679%, 36.470032%)"
         stop-opacity="1"
         id="stop55" />
      <stop
         offset="0.285156"
         stop-color="rgb(33.724976%, 17.64679%, 36.470032%)"
         stop-opacity="1"
         id="stop56" />
      <stop
         offset="0.289062"
         stop-color="rgb(34.117126%, 17.64679%, 36.470032%)"
         stop-opacity="1"
         id="stop57" />
      <stop
         offset="0.292969"
         stop-color="rgb(34.509277%, 17.64679%, 36.077881%)"
         stop-opacity="1"
         id="stop58" />
      <stop
         offset="0.296875"
         stop-color="rgb(34.901428%, 17.64679%, 36.077881%)"
         stop-opacity="1"
         id="stop59" />
      <stop
         offset="0.300781"
         stop-color="rgb(35.293579%, 17.64679%, 36.077881%)"
         stop-opacity="1"
         id="stop60" />
      <stop
         offset="0.304688"
         stop-color="rgb(35.68573%, 17.254639%, 36.077881%)"
         stop-opacity="1"
         id="stop61" />
      <stop
         offset="0.308594"
         stop-color="rgb(36.077881%, 17.254639%, 35.68573%)"
         stop-opacity="1"
         id="stop62" />
      <stop
         offset="0.3125"
         stop-color="rgb(36.470032%, 17.254639%, 35.68573%)"
         stop-opacity="1"
         id="stop63" />
      <stop
         offset="0.316406"
         stop-color="rgb(36.862183%, 17.254639%, 35.68573%)"
         stop-opacity="1"
         id="stop64" />
      <stop
         offset="0.320312"
         stop-color="rgb(37.254333%, 17.254639%, 35.68573%)"
         stop-opacity="1"
         id="stop65" />
      <stop
         offset="0.324219"
         stop-color="rgb(37.646484%, 17.254639%, 35.293579%)"
         stop-opacity="1"
         id="stop66" />
      <stop
         offset="0.328125"
         stop-color="rgb(38.038635%, 17.254639%, 35.293579%)"
         stop-opacity="1"
         id="stop67" />
      <stop
         offset="0.332031"
         stop-color="rgb(38.430786%, 17.254639%, 35.293579%)"
         stop-opacity="1"
         id="stop68" />
      <stop
         offset="0.335938"
         stop-color="rgb(38.822937%, 17.254639%, 34.901428%)"
         stop-opacity="1"
         id="stop69" />
      <stop
         offset="0.339844"
         stop-color="rgb(39.215088%, 17.254639%, 34.901428%)"
         stop-opacity="1"
         id="stop70" />
      <stop
         offset="0.34375"
         stop-color="rgb(39.607239%, 16.862488%, 34.901428%)"
         stop-opacity="1"
         id="stop71" />
      <stop
         offset="0.347656"
         stop-color="rgb(39.99939%, 16.862488%, 34.901428%)"
         stop-opacity="1"
         id="stop72" />
      <stop
         offset="0.351562"
         stop-color="rgb(40.391541%, 16.862488%, 34.509277%)"
         stop-opacity="1"
         id="stop73" />
      <stop
         offset="0.355469"
         stop-color="rgb(40.783691%, 16.862488%, 34.509277%)"
         stop-opacity="1"
         id="stop74" />
      <stop
         offset="0.359375"
         stop-color="rgb(41.175842%, 16.862488%, 34.509277%)"
         stop-opacity="1"
         id="stop75" />
      <stop
         offset="0.363281"
         stop-color="rgb(41.567993%, 16.862488%, 34.509277%)"
         stop-opacity="1"
         id="stop76" />
      <stop
         offset="0.367188"
         stop-color="rgb(41.960144%, 16.862488%, 34.117126%)"
         stop-opacity="1"
         id="stop77" />
      <stop
         offset="0.371094"
         stop-color="rgb(42.352295%, 16.862488%, 34.117126%)"
         stop-opacity="1"
         id="stop78" />
      <stop
         offset="0.375"
         stop-color="rgb(42.744446%, 16.862488%, 34.117126%)"
         stop-opacity="1"
         id="stop79" />
      <stop
         offset="0.378906"
         stop-color="rgb(43.136597%, 16.862488%, 34.117126%)"
         stop-opacity="1"
         id="stop80" />
      <stop
         offset="0.382812"
         stop-color="rgb(43.528748%, 16.470337%, 33.724976%)"
         stop-opacity="1"
         id="stop81" />
      <stop
         offset="0.386719"
         stop-color="rgb(43.920898%, 16.470337%, 33.724976%)"
         stop-opacity="1"
         id="stop82" />
      <stop
         offset="0.390625"
         stop-color="rgb(44.313049%, 16.470337%, 33.724976%)"
         stop-opacity="1"
         id="stop83" />
      <stop
         offset="0.394531"
         stop-color="rgb(44.7052%, 16.470337%, 33.724976%)"
         stop-opacity="1"
         id="stop84" />
      <stop
         offset="0.398438"
         stop-color="rgb(45.097351%, 16.470337%, 33.332825%)"
         stop-opacity="1"
         id="stop85" />
      <stop
         offset="0.402344"
         stop-color="rgb(45.489502%, 16.470337%, 33.332825%)"
         stop-opacity="1"
         id="stop86" />
      <stop
         offset="0.40625"
         stop-color="rgb(45.881653%, 16.470337%, 33.332825%)"
         stop-opacity="1"
         id="stop87" />
      <stop
         offset="0.410156"
         stop-color="rgb(46.273804%, 16.470337%, 33.332825%)"
         stop-opacity="1"
         id="stop88" />
      <stop
         offset="0.414062"
         stop-color="rgb(46.665955%, 16.470337%, 32.940674%)"
         stop-opacity="1"
         id="stop89" />
      <stop
         offset="0.417969"
         stop-color="rgb(47.058105%, 16.470337%, 32.940674%)"
         stop-opacity="1"
         id="stop90" />
      <stop
         offset="0.421875"
         stop-color="rgb(47.450256%, 16.078186%, 32.940674%)"
         stop-opacity="1"
         id="stop91" />
      <stop
         offset="0.425781"
         stop-color="rgb(47.842407%, 16.078186%, 32.940674%)"
         stop-opacity="1"
         id="stop92" />
      <stop
         offset="0.429688"
         stop-color="rgb(48.234558%, 16.078186%, 32.548523%)"
         stop-opacity="1"
         id="stop93" />
      <stop
         offset="0.433594"
         stop-color="rgb(48.626709%, 16.078186%, 32.548523%)"
         stop-opacity="1"
         id="stop94" />
      <stop
         offset="0.4375"
         stop-color="rgb(49.01886%, 16.078186%, 32.548523%)"
         stop-opacity="1"
         id="stop95" />
      <stop
         offset="0.441406"
         stop-color="rgb(49.411011%, 16.078186%, 32.548523%)"
         stop-opacity="1"
         id="stop96" />
      <stop
         offset="0.445312"
         stop-color="rgb(49.803162%, 16.078186%, 32.156372%)"
         stop-opacity="1"
         id="stop97" />
      <stop
         offset="0.449219"
         stop-color="rgb(50.196838%, 16.078186%, 32.156372%)"
         stop-opacity="1"
         id="stop98" />
      <stop
         offset="0.453125"
         stop-color="rgb(50.588989%, 16.078186%, 32.156372%)"
         stop-opacity="1"
         id="stop99" />
      <stop
         offset="0.457031"
         stop-color="rgb(50.98114%, 16.078186%, 32.156372%)"
         stop-opacity="1"
         id="stop100" />
      <stop
         offset="0.460938"
         stop-color="rgb(51.373291%, 15.686035%, 31.764221%)"
         stop-opacity="1"
         id="stop101" />
      <stop
         offset="0.464844"
         stop-color="rgb(51.765442%, 15.686035%, 31.764221%)"
         stop-opacity="1"
         id="stop102" />
      <stop
         offset="0.46875"
         stop-color="rgb(52.157593%, 15.686035%, 31.764221%)"
         stop-opacity="1"
         id="stop103" />
      <stop
         offset="0.472656"
         stop-color="rgb(52.549744%, 15.686035%, 31.764221%)"
         stop-opacity="1"
         id="stop104" />
      <stop
         offset="0.476562"
         stop-color="rgb(52.941895%, 15.686035%, 31.37207%)"
         stop-opacity="1"
         id="stop105" />
      <stop
         offset="0.480469"
         stop-color="rgb(53.334045%, 15.686035%, 31.37207%)"
         stop-opacity="1"
         id="stop106" />
      <stop
         offset="0.484375"
         stop-color="rgb(53.726196%, 15.686035%, 31.37207%)"
         stop-opacity="1"
         id="stop107" />
      <stop
         offset="0.488281"
         stop-color="rgb(54.118347%, 15.686035%, 30.979919%)"
         stop-opacity="1"
         id="stop108" />
      <stop
         offset="0.492188"
         stop-color="rgb(54.510498%, 15.686035%, 30.979919%)"
         stop-opacity="1"
         id="stop109" />
      <stop
         offset="0.496094"
         stop-color="rgb(54.902649%, 15.686035%, 30.979919%)"
         stop-opacity="1"
         id="stop110" />
      <stop
         offset="0.5"
         stop-color="rgb(55.2948%, 15.686035%, 30.979919%)"
         stop-opacity="1"
         id="stop111" />
      <stop
         offset="0.503906"
         stop-color="rgb(55.686951%, 15.293884%, 30.587769%)"
         stop-opacity="1"
         id="stop112" />
      <stop
         offset="0.507812"
         stop-color="rgb(56.079102%, 15.293884%, 30.587769%)"
         stop-opacity="1"
         id="stop113" />
      <stop
         offset="0.511719"
         stop-color="rgb(56.471252%, 15.293884%, 30.587769%)"
         stop-opacity="1"
         id="stop114" />
      <stop
         offset="0.515625"
         stop-color="rgb(56.863403%, 15.293884%, 30.587769%)"
         stop-opacity="1"
         id="stop115" />
      <stop
         offset="0.519531"
         stop-color="rgb(57.255554%, 15.293884%, 30.195618%)"
         stop-opacity="1"
         id="stop116" />
      <stop
         offset="0.523438"
         stop-color="rgb(57.647705%, 15.293884%, 30.195618%)"
         stop-opacity="1"
         id="stop117" />
      <stop
         offset="0.527344"
         stop-color="rgb(58.039856%, 15.293884%, 30.195618%)"
         stop-opacity="1"
         id="stop118" />
      <stop
         offset="0.53125"
         stop-color="rgb(58.432007%, 15.293884%, 30.195618%)"
         stop-opacity="1"
         id="stop119" />
      <stop
         offset="0.535156"
         stop-color="rgb(58.824158%, 15.293884%, 29.803467%)"
         stop-opacity="1"
         id="stop120" />
      <stop
         offset="0.539062"
         stop-color="rgb(59.216309%, 15.293884%, 29.803467%)"
         stop-opacity="1"
         id="stop121" />
      <stop
         offset="0.542969"
         stop-color="rgb(59.608459%, 14.901733%, 29.803467%)"
         stop-opacity="1"
         id="stop122" />
      <stop
         offset="0.546875"
         stop-color="rgb(60.00061%, 14.901733%, 29.803467%)"
         stop-opacity="1"
         id="stop123" />
      <stop
         offset="0.550781"
         stop-color="rgb(60.392761%, 14.901733%, 29.411316%)"
         stop-opacity="1"
         id="stop124" />
      <stop
         offset="0.554687"
         stop-color="rgb(60.784912%, 14.901733%, 29.411316%)"
         stop-opacity="1"
         id="stop125" />
      <stop
         offset="0.558594"
         stop-color="rgb(61.177063%, 14.901733%, 29.411316%)"
         stop-opacity="1"
         id="stop126" />
      <stop
         offset="0.5625"
         stop-color="rgb(61.569214%, 14.901733%, 29.411316%)"
         stop-opacity="1"
         id="stop127" />
      <stop
         offset="0.566406"
         stop-color="rgb(61.961365%, 14.901733%, 29.019165%)"
         stop-opacity="1"
         id="stop128" />
      <stop
         offset="0.570313"
         stop-color="rgb(62.353516%, 14.901733%, 29.019165%)"
         stop-opacity="1"
         id="stop129" />
      <stop
         offset="0.574219"
         stop-color="rgb(62.745667%, 14.901733%, 29.019165%)"
         stop-opacity="1"
         id="stop130" />
      <stop
         offset="0.578125"
         stop-color="rgb(63.137817%, 14.901733%, 29.019165%)"
         stop-opacity="1"
         id="stop131" />
      <stop
         offset="0.582031"
         stop-color="rgb(63.529968%, 14.509583%, 28.627014%)"
         stop-opacity="1"
         id="stop132" />
      <stop
         offset="0.585938"
         stop-color="rgb(63.922119%, 14.509583%, 28.627014%)"
         stop-opacity="1"
         id="stop133" />
      <stop
         offset="0.589844"
         stop-color="rgb(64.31427%, 14.509583%, 28.627014%)"
         stop-opacity="1"
         id="stop134" />
      <stop
         offset="0.59375"
         stop-color="rgb(64.706421%, 14.509583%, 28.627014%)"
         stop-opacity="1"
         id="stop135" />
      <stop
         offset="0.597656"
         stop-color="rgb(65.098572%, 14.509583%, 28.234863%)"
         stop-opacity="1"
         id="stop136" />
      <stop
         offset="0.601562"
         stop-color="rgb(65.490723%, 14.509583%, 28.234863%)"
         stop-opacity="1"
         id="stop137" />
      <stop
         offset="0.605469"
         stop-color="rgb(65.882874%, 14.509583%, 28.234863%)"
         stop-opacity="1"
         id="stop138" />
      <stop
         offset="0.609375"
         stop-color="rgb(66.275024%, 14.509583%, 28.234863%)"
         stop-opacity="1"
         id="stop139" />
      <stop
         offset="0.613281"
         stop-color="rgb(66.667175%, 14.509583%, 27.842712%)"
         stop-opacity="1"
         id="stop140" />
      <stop
         offset="0.617188"
         stop-color="rgb(67.059326%, 14.509583%, 27.842712%)"
         stop-opacity="1"
         id="stop141" />
      <stop
         offset="0.621094"
         stop-color="rgb(67.451477%, 14.117432%, 27.842712%)"
         stop-opacity="1"
         id="stop142" />
      <stop
         offset="0.625"
         stop-color="rgb(67.843628%, 14.117432%, 27.450562%)"
         stop-opacity="1"
         id="stop143" />
      <stop
         offset="0.628906"
         stop-color="rgb(68.235779%, 14.117432%, 27.450562%)"
         stop-opacity="1"
         id="stop144" />
      <stop
         offset="0.632812"
         stop-color="rgb(68.62793%, 14.117432%, 27.450562%)"
         stop-opacity="1"
         id="stop145" />
      <stop
         offset="0.636719"
         stop-color="rgb(69.020081%, 14.117432%, 27.450562%)"
         stop-opacity="1"
         id="stop146" />
      <stop
         offset="0.640625"
         stop-color="rgb(69.412231%, 14.117432%, 27.058411%)"
         stop-opacity="1"
         id="stop147" />
      <stop
         offset="0.644531"
         stop-color="rgb(69.804382%, 14.117432%, 27.058411%)"
         stop-opacity="1"
         id="stop148" />
      <stop
         offset="0.648438"
         stop-color="rgb(70.196533%, 14.117432%, 27.058411%)"
         stop-opacity="1"
         id="stop149" />
      <stop
         offset="0.652344"
         stop-color="rgb(70.588684%, 14.117432%, 27.058411%)"
         stop-opacity="1"
         id="stop150" />
      <stop
         offset="0.65625"
         stop-color="rgb(70.980835%, 14.117432%, 26.66626%)"
         stop-opacity="1"
         id="stop151" />
      <stop
         offset="0.660156"
         stop-color="rgb(71.372986%, 13.725281%, 26.66626%)"
         stop-opacity="1"
         id="stop152" />
      <stop
         offset="0.664062"
         stop-color="rgb(71.765137%, 13.725281%, 26.66626%)"
         stop-opacity="1"
         id="stop153" />
      <stop
         offset="0.667969"
         stop-color="rgb(72.157288%, 13.725281%, 26.66626%)"
         stop-opacity="1"
         id="stop154" />
      <stop
         offset="0.671875"
         stop-color="rgb(72.549438%, 13.725281%, 26.274109%)"
         stop-opacity="1"
         id="stop155" />
      <stop
         offset="0.675781"
         stop-color="rgb(72.941589%, 13.725281%, 26.274109%)"
         stop-opacity="1"
         id="stop156" />
      <stop
         offset="0.679687"
         stop-color="rgb(73.33374%, 13.725281%, 26.274109%)"
         stop-opacity="1"
         id="stop157" />
      <stop
         offset="0.683594"
         stop-color="rgb(73.725891%, 13.725281%, 26.274109%)"
         stop-opacity="1"
         id="stop158" />
      <stop
         offset="0.6875"
         stop-color="rgb(74.118042%, 13.725281%, 25.881958%)"
         stop-opacity="1"
         id="stop159" />
      <stop
         offset="0.691406"
         stop-color="rgb(74.510193%, 13.725281%, 25.881958%)"
         stop-opacity="1"
         id="stop160" />
      <stop
         offset="0.695313"
         stop-color="rgb(74.902344%, 13.725281%, 25.881958%)"
         stop-opacity="1"
         id="stop161" />
      <stop
         offset="0.699219"
         stop-color="rgb(75.294495%, 13.33313%, 25.881958%)"
         stop-opacity="1"
         id="stop162" />
      <stop
         offset="0.703125"
         stop-color="rgb(75.686646%, 13.33313%, 25.489807%)"
         stop-opacity="1"
         id="stop163" />
      <stop
         offset="0.707031"
         stop-color="rgb(76.078796%, 13.33313%, 25.489807%)"
         stop-opacity="1"
         id="stop164" />
      <stop
         offset="0.710938"
         stop-color="rgb(76.470947%, 13.33313%, 25.489807%)"
         stop-opacity="1"
         id="stop165" />
      <stop
         offset="0.714844"
         stop-color="rgb(76.863098%, 13.33313%, 25.489807%)"
         stop-opacity="1"
         id="stop166" />
      <stop
         offset="0.71875"
         stop-color="rgb(77.255249%, 13.33313%, 25.097656%)"
         stop-opacity="1"
         id="stop167" />
      <stop
         offset="0.722656"
         stop-color="rgb(77.6474%, 13.33313%, 25.097656%)"
         stop-opacity="1"
         id="stop168" />
      <stop
         offset="0.726562"
         stop-color="rgb(78.039551%, 13.33313%, 25.097656%)"
         stop-opacity="1"
         id="stop169" />
      <stop
         offset="0.730469"
         stop-color="rgb(78.431702%, 13.33313%, 25.097656%)"
         stop-opacity="1"
         id="stop170" />
      <stop
         offset="0.734375"
         stop-color="rgb(78.823853%, 13.33313%, 24.705505%)"
         stop-opacity="1"
         id="stop171" />
      <stop
         offset="0.738281"
         stop-color="rgb(79.216003%, 12.940979%, 24.705505%)"
         stop-opacity="1"
         id="stop172" />
      <stop
         offset="0.742188"
         stop-color="rgb(79.608154%, 12.940979%, 24.705505%)"
         stop-opacity="1"
         id="stop173" />
      <stop
         offset="0.746094"
         stop-color="rgb(80.000305%, 12.940979%, 24.705505%)"
         stop-opacity="1"
         id="stop174" />
      <stop
         offset="0.75"
         stop-color="rgb(80.392456%, 12.940979%, 24.313354%)"
         stop-opacity="1"
         id="stop175" />
      <stop
         offset="0.753906"
         stop-color="rgb(80.784607%, 12.940979%, 24.313354%)"
         stop-opacity="1"
         id="stop176" />
      <stop
         offset="0.757812"
         stop-color="rgb(81.176758%, 12.940979%, 24.313354%)"
         stop-opacity="1"
         id="stop177" />
      <stop
         offset="0.761719"
         stop-color="rgb(81.568909%, 12.940979%, 24.313354%)"
         stop-opacity="1"
         id="stop178" />
      <stop
         offset="0.765625"
         stop-color="rgb(81.96106%, 12.940979%, 23.921204%)"
         stop-opacity="1"
         id="stop179" />
      <stop
         offset="0.769531"
         stop-color="rgb(82.35321%, 12.940979%, 23.921204%)"
         stop-opacity="1"
         id="stop180" />
      <stop
         offset="0.773438"
         stop-color="rgb(82.745361%, 12.940979%, 23.921204%)"
         stop-opacity="1"
         id="stop181" />
      <stop
         offset="0.777344"
         stop-color="rgb(83.137512%, 12.548828%, 23.529053%)"
         stop-opacity="1"
         id="stop182" />
      <stop
         offset="0.78125"
         stop-color="rgb(83.529663%, 12.548828%, 23.529053%)"
         stop-opacity="1"
         id="stop183" />
      <stop
         offset="0.785156"
         stop-color="rgb(83.921814%, 12.548828%, 23.529053%)"
         stop-opacity="1"
         id="stop184" />
      <stop
         offset="0.789062"
         stop-color="rgb(84.313965%, 12.548828%, 23.529053%)"
         stop-opacity="1"
         id="stop185" />
      <stop
         offset="0.792969"
         stop-color="rgb(84.706116%, 12.548828%, 23.136902%)"
         stop-opacity="1"
         id="stop186" />
      <stop
         offset="0.796875"
         stop-color="rgb(85.098267%, 12.548828%, 23.136902%)"
         stop-opacity="1"
         id="stop187" />
      <stop
         offset="0.800781"
         stop-color="rgb(85.490417%, 12.548828%, 23.136902%)"
         stop-opacity="1"
         id="stop188" />
      <stop
         offset="0.804687"
         stop-color="rgb(85.882568%, 12.548828%, 23.136902%)"
         stop-opacity="1"
         id="stop189" />
      <stop
         offset="0.808594"
         stop-color="rgb(86.274719%, 12.548828%, 22.744751%)"
         stop-opacity="1"
         id="stop190" />
      <stop
         offset="0.8125"
         stop-color="rgb(86.66687%, 12.548828%, 22.744751%)"
         stop-opacity="1"
         id="stop191" />
      <stop
         offset="0.816406"
         stop-color="rgb(87.059021%, 12.548828%, 22.744751%)"
         stop-opacity="1"
         id="stop192" />
      <stop
         offset="0.820313"
         stop-color="rgb(87.451172%, 12.156677%, 22.744751%)"
         stop-opacity="1"
         id="stop193" />
      <stop
         offset="0.824219"
         stop-color="rgb(87.843323%, 12.156677%, 22.3526%)"
         stop-opacity="1"
         id="stop194" />
      <stop
         offset="0.828125"
         stop-color="rgb(88.235474%, 12.156677%, 22.3526%)"
         stop-opacity="1"
         id="stop195" />
      <stop
         offset="0.832031"
         stop-color="rgb(88.627625%, 12.156677%, 22.3526%)"
         stop-opacity="1"
         id="stop196" />
      <stop
         offset="0.835938"
         stop-color="rgb(89.019775%, 12.156677%, 22.3526%)"
         stop-opacity="1"
         id="stop197" />
      <stop
         offset="0.839844"
         stop-color="rgb(89.411926%, 12.156677%, 21.960449%)"
         stop-opacity="1"
         id="stop198" />
      <stop
         offset="0.84375"
         stop-color="rgb(89.804077%, 12.156677%, 21.960449%)"
         stop-opacity="1"
         id="stop199" />
      <stop
         offset="0.847656"
         stop-color="rgb(90.196228%, 12.156677%, 21.960449%)"
         stop-opacity="1"
         id="stop200" />
      <stop
         offset="0.851562"
         stop-color="rgb(90.588379%, 12.156677%, 21.960449%)"
         stop-opacity="1"
         id="stop201" />
      <stop
         offset="0.855469"
         stop-color="rgb(90.98053%, 12.156677%, 21.568298%)"
         stop-opacity="1"
         id="stop202" />
      <stop
         offset="0.859375"
         stop-color="rgb(91.372681%, 11.764526%, 21.568298%)"
         stop-opacity="1"
         id="stop203" />
      <stop
         offset="0.863281"
         stop-color="rgb(91.764832%, 11.764526%, 21.568298%)"
         stop-opacity="1"
         id="stop204" />
      <stop
         offset="0.867188"
         stop-color="rgb(92.156982%, 11.764526%, 21.568298%)"
         stop-opacity="1"
         id="stop205" />
      <stop
         offset="0.871094"
         stop-color="rgb(92.549133%, 11.764526%, 21.176147%)"
         stop-opacity="1"
         id="stop206" />
      <stop
         offset="0.875"
         stop-color="rgb(92.941284%, 11.764526%, 21.176147%)"
         stop-opacity="1"
         id="stop207" />
      <stop
         offset="1"
         stop-color="rgb(92.941284%, 11.764526%, 21.176147%)"
         stop-opacity="1"
         id="stop208" />
    </linearGradient>
  </defs>
  <path
     fill-rule="nonzero"
     fill="rgb(13.725281%, 19.607544%, 41.567993%)"
     fill-opacity="1"
     d="M 1291.9375 597.382812 C 1290.246094 600.523438 1288.039062 602.886719 1285.3125 604.476562 C 1282.585938 606.0625 1279.597656 606.855469 1276.355469 606.855469 C 1273.179688 606.855469 1270.226562 606.0625 1267.503906 604.476562 C 1264.773438 602.886719 1262.582031 600.523438 1260.925781 597.382812 C 1259.269531 594.242188 1258.441406 590.359375 1258.441406 585.734375 C 1258.441406 581.039062 1259.285156 577.15625 1260.976562 574.082031 C 1262.667969 571.011719 1264.894531 568.683594 1267.65625 567.09375 C 1270.417969 565.503906 1273.351562 564.710938 1276.460938 564.710938 C 1279.703125 564.710938 1282.6875 565.488281 1285.417969 567.042969 C 1288.140625 568.59375 1290.335938 570.925781 1291.992188 574.03125 C 1293.648438 577.136719 1294.476562 581.039062 1294.476562 585.734375 C 1294.476562 590.359375 1293.628906 594.242188 1291.9375 597.382812 M 1289.609375 561.757812 C 1285.8125 559.519531 1281.429688 558.394531 1276.460938 558.394531 C 1271.695312 558.394531 1267.378906 559.519531 1263.515625 561.757812 C 1259.648438 564.003906 1256.59375 567.164062 1254.351562 571.234375 C 1252.105469 575.308594 1250.984375 580.175781 1250.984375 585.835938 C 1250.984375 591.289062 1252.089844 596.070312 1254.296875 600.175781 C 1256.507812 604.285156 1259.527344 607.460938 1263.359375 609.703125 C 1267.191406 611.945312 1271.488281 613.070312 1276.25 613.070312 C 1281.222656 613.070312 1285.625 611.945312 1289.453125 609.703125 C 1293.285156 607.460938 1296.324219 604.285156 1298.566406 600.175781 C 1300.808594 596.070312 1301.933594 591.289062 1301.933594 585.835938 C 1301.933594 580.175781 1300.828125 575.308594 1298.621094 571.234375 C 1296.410156 567.164062 1293.40625 564.003906 1289.609375 561.757812 "
     id="path208" />
  <path
     fill-rule="nonzero"
     fill="rgb(13.725281%, 19.607544%, 41.567993%)"
     fill-opacity="1"
     d="M 1211.207031 547.523438 L 1204.992188 547.523438 L 1203.957031 559.636719 L 1194.847656 559.636719 L 1194.847656 565.851562 L 1203.957031 565.851562 L 1203.957031 596.8125 C 1203.957031 600.609375 1204.527344 603.59375 1205.667969 605.769531 C 1206.808594 607.945312 1208.445312 609.496094 1210.585938 610.429688 C 1212.726562 611.359375 1215.28125 611.828125 1218.25 611.828125 L 1226.015625 611.828125 L 1226.015625 605.613281 L 1220.628906 605.613281 C 1217.109375 605.613281 1214.660156 605.011719 1213.277344 603.800781 C 1211.894531 602.59375 1211.207031 600.265625 1211.207031 596.8125 L 1211.207031 565.851562 L 1226.84375 565.851562 L 1226.84375 559.742188 L 1211.207031 559.742188 Z M 1211.207031 547.523438 "
     id="path209" />
  <path
     fill-rule="nonzero"
     fill="rgb(13.725281%, 19.607544%, 41.567993%)"
     fill-opacity="1"
     d="M 965.8125 563.574219 C 963.949219 565.230469 962.464844 567.265625 961.359375 569.683594 L 960.84375 559.636719 L 954.214844 559.636719 L 954.214844 611.828125 L 961.464844 611.828125 L 961.464844 584.179688 C 961.464844 580.660156 961.945312 577.726562 962.914062 575.378906 C 963.878906 573.03125 965.15625 571.167969 966.746094 569.785156 C 968.332031 568.40625 970.164062 567.421875 972.234375 566.835938 C 974.304688 566.25 976.441406 565.953125 978.65625 565.953125 L 981.449219 565.953125 L 981.449219 558.394531 C 978.136719 558.394531 975.167969 558.84375 972.542969 559.742188 C 969.917969 560.640625 967.675781 561.914062 965.8125 563.574219 "
     id="path210" />
  <path
     fill-rule="nonzero"
     fill="rgb(13.725281%, 19.607544%, 41.567993%)"
     fill-opacity="1"
     d="M 935.777344 597.382812 C 934.085938 600.523438 931.875 602.886719 929.148438 604.476562 C 926.421875 606.0625 923.4375 606.855469 920.191406 606.855469 C 917.015625 606.855469 914.0625 606.0625 911.339844 604.476562 C 908.609375 602.886719 906.421875 600.523438 904.761719 597.382812 C 903.105469 594.242188 902.277344 590.359375 902.277344 585.734375 C 902.277344 581.039062 903.121094 577.15625 904.8125 574.082031 C 906.503906 571.011719 908.730469 568.683594 911.496094 567.09375 C 914.253906 565.503906 917.1875 564.710938 920.296875 564.710938 C 923.539062 564.710938 926.523438 565.488281 929.253906 567.042969 C 931.980469 568.59375 934.171875 570.925781 935.828125 574.03125 C 937.484375 577.136719 938.3125 581.039062 938.3125 585.734375 C 938.3125 590.359375 937.46875 594.242188 935.777344 597.382812 M 933.445312 561.757812 C 929.648438 559.519531 925.265625 558.394531 920.296875 558.394531 C 915.53125 558.394531 911.21875 559.519531 907.351562 561.757812 C 903.484375 564.003906 900.429688 567.164062 898.1875 571.234375 C 895.941406 575.308594 894.820312 580.175781 894.820312 585.835938 C 894.820312 591.289062 895.925781 596.070312 898.136719 600.175781 C 900.34375 604.285156 903.363281 607.460938 907.195312 609.703125 C 911.027344 611.945312 915.324219 613.070312 920.089844 613.070312 C 925.058594 613.070312 929.460938 611.945312 933.292969 609.703125 C 937.125 607.460938 940.160156 604.285156 942.402344 600.175781 C 944.644531 596.070312 945.769531 591.289062 945.769531 585.835938 C 945.769531 580.175781 944.664062 575.308594 942.457031 571.234375 C 940.246094 567.164062 937.242188 564.003906 933.445312 561.757812 "
     id="path211" />
  <path
     fill-rule="nonzero"
     fill="rgb(92.941284%, 11.764526%, 21.176147%)"
     fill-opacity="1"
     d="M 900.664062 519.949219 L 900.664062 447.460938 L 885.859375 447.460938 L 862.871094 494.269531 L 839.675781 447.460938 L 824.96875 447.460938 L 824.96875 519.949219 L 837.394531 519.949219 L 837.394531 468.898438 L 858.003906 509.800781 L 867.734375 509.800781 L 888.238281 468.792969 L 888.238281 519.949219 Z M 900.664062 519.949219 "
     id="path212" />
  <path
     fill-rule="nonzero"
     fill="rgb(13.725281%, 19.607544%, 41.567993%)"
     fill-opacity="1"
     d="M 842.78125 548.144531 C 846.78125 545.65625 851.441406 544.414062 856.757812 544.414062 C 862.902344 544.414062 867.769531 545.847656 871.359375 548.714844 C 874.949219 551.578125 877.296875 555.359375 878.402344 560.050781 L 886.375 560.050781 C 884.925781 553.082031 881.664062 547.675781 876.589844 543.847656 C 871.515625 540.015625 864.90625 538.097656 856.757812 538.097656 C 849.855469 538.097656 843.832031 539.671875 838.691406 542.808594 C 833.546875 545.953125 829.59375 550.335938 826.835938 555.960938 C 824.070312 561.589844 822.691406 568.128906 822.691406 575.585938 C 822.691406 583.039062 824.070312 589.582031 826.835938 595.207031 C 829.59375 600.835938 833.527344 605.21875 838.636719 608.359375 C 843.746094 611.5 849.785156 613.070312 856.757812 613.070312 C 864.972656 613.070312 871.585938 611.152344 876.589844 607.320312 C 881.59375 603.492188 884.855469 598.15625 886.375 591.324219 L 878.402344 591.324219 C 877.296875 595.949219 874.949219 599.679688 871.359375 602.507812 C 867.769531 605.339844 862.902344 606.753906 856.757812 606.753906 C 851.441406 606.753906 846.78125 605.511719 842.78125 603.023438 C 838.777344 600.539062 835.671875 596.96875 833.460938 592.308594 C 831.25 587.648438 830.148438 582.074219 830.148438 575.585938 C 830.148438 569.097656 831.25 563.519531 833.460938 558.859375 C 835.671875 554.203125 838.777344 550.628906 842.78125 548.144531 "
     id="path213" />
  <path
     fill-rule="nonzero"
     fill="rgb(92.941284%, 11.764526%, 21.176147%)"
     fill-opacity="1"
     d="M 983.933594 485.257812 C 985.210938 482.773438 986.992188 480.839844 989.265625 479.460938 C 991.546875 478.078125 994.097656 477.390625 996.929688 477.390625 C 999.898438 477.390625 1002.523438 478.078125 1004.800781 479.460938 C 1007.078125 480.839844 1008.839844 482.773438 1010.082031 485.257812 C 1011.324219 487.742188 1011.945312 490.609375 1011.945312 493.855469 C 1011.945312 497.101562 1011.324219 499.964844 1010.082031 502.449219 C 1008.839844 504.933594 1007.078125 506.882812 1004.800781 508.296875 C 1002.523438 509.714844 999.898438 510.421875 996.929688 510.421875 C 994.097656 510.421875 991.546875 509.714844 989.265625 508.296875 C 986.992188 506.882812 985.210938 504.933594 983.933594 502.449219 C 982.65625 499.964844 982.019531 497.101562 982.019531 493.855469 C 982.019531 490.609375 982.65625 487.742188 983.933594 485.257812 M 981.398438 517.671875 C 985.195312 520.015625 989.507812 521.191406 994.339844 521.191406 C 997.308594 521.191406 999.898438 520.777344 1002.109375 519.949219 C 1004.316406 519.121094 1006.214844 518.03125 1007.804688 516.6875 C 1009.390625 515.339844 1010.738281 513.910156 1011.839844 512.390625 L 1013.085938 519.949219 L 1024.269531 519.949219 L 1024.269531 445.390625 L 1011.839844 445.390625 L 1011.839844 475.007812 C 1010.117188 472.316406 1007.785156 470.226562 1004.851562 468.742188 C 1001.917969 467.257812 998.484375 466.515625 994.546875 466.515625 C 989.714844 466.515625 985.382812 467.707031 981.554688 470.089844 C 977.722656 472.46875 974.734375 475.714844 972.597656 479.824219 C 970.457031 483.929688 969.386719 488.609375 969.386719 493.855469 C 969.386719 499.101562 970.4375 503.792969 972.542969 507.9375 C 974.648438 512.078125 977.601562 515.324219 981.398438 517.671875 "
     id="path214" />
  <path
     fill-rule="nonzero"
     fill="rgb(92.941284%, 11.764526%, 21.176147%)"
     fill-opacity="1"
     d="M 1053.042969 519.949219 L 1065.363281 519.949219 L 1065.363281 457.507812 L 1086.695312 457.507812 L 1086.695312 445.390625 L 1031.710938 445.390625 L 1031.710938 457.507812 L 1053.042969 457.507812 Z M 1053.042969 519.949219 "
     id="path215" />
  <path
     fill-rule="nonzero"
     fill="rgb(13.725281%, 19.607544%, 41.567993%)"
     fill-opacity="1"
     d="M 1352.523438 567.972656 C 1350.867188 564.761719 1348.554688 562.367188 1345.585938 560.777344 C 1342.617188 559.1875 1339.128906 558.394531 1335.128906 558.394531 C 1331.261719 558.394531 1327.757812 559.328125 1324.617188 561.191406 C 1321.476562 563.054688 1319.078125 565.644531 1317.421875 568.957031 L 1317.003906 559.636719 L 1310.378906 559.636719 L 1310.378906 611.828125 L 1317.628906 611.828125 L 1317.628906 583.867188 C 1317.628906 579.726562 1318.335938 576.242188 1319.75 573.410156 C 1321.164062 570.582031 1323.097656 568.421875 1325.546875 566.9375 C 1328 565.453125 1330.777344 564.710938 1333.882812 564.710938 C 1338.300781 564.710938 1341.71875 566.058594 1344.136719 568.75 C 1346.550781 571.441406 1347.761719 575.550781 1347.761719 581.074219 L 1347.761719 611.828125 L 1355.007812 611.828125 L 1355.007812 580.246094 C 1355.007812 575.273438 1354.179688 571.183594 1352.523438 567.972656 "
     id="path216" />
  <path
     fill-rule="nonzero"
     fill="rgb(92.941284%, 11.764526%, 21.176147%)"
     fill-opacity="1"
     d="M 923.195312 483.652344 C 924.4375 481.339844 926.128906 479.597656 928.269531 478.425781 C 930.40625 477.25 932.757812 476.664062 935.308594 476.664062 C 938.898438 476.664062 941.902344 477.75 944.320312 479.925781 C 946.734375 482.101562 948.011719 485.085938 948.152344 488.882812 L 921.570312 488.882812 C 921.855469 486.890625 922.394531 485.144531 923.195312 483.652344 M 959.230469 504.105469 L 946.597656 504.105469 C 945.699219 506.175781 944.300781 507.832031 942.402344 509.074219 C 940.503906 510.320312 938.105469 510.941406 935.207031 510.941406 C 932.582031 510.941406 930.21875 510.335938 928.113281 509.128906 C 926.007812 507.921875 924.351562 506.144531 923.144531 503.792969 C 922.117188 501.804688 921.535156 499.492188 921.378906 496.855469 L 960.472656 496.855469 C 960.609375 495.960938 960.679688 495.09375 960.679688 494.269531 L 960.679688 491.988281 C 960.679688 487.226562 959.644531 482.929688 957.574219 479.097656 C 955.503906 475.265625 952.566406 472.210938 948.773438 469.933594 C 944.972656 467.65625 940.523438 466.515625 935.414062 466.515625 C 930.167969 466.515625 925.558594 467.691406 921.589844 470.035156 C 917.617188 472.382812 914.550781 475.628906 912.375 479.769531 C 910.199219 483.914062 909.113281 488.746094 909.113281 494.269531 C 909.113281 499.585938 910.214844 504.277344 912.425781 508.351562 C 914.632812 512.425781 917.707031 515.582031 921.640625 517.824219 C 925.574219 520.070312 930.132812 521.191406 935.308594 521.191406 C 939.382812 521.191406 943.042969 520.449219 946.285156 518.964844 C 949.53125 517.480469 952.257812 515.445312 954.46875 512.855469 C 956.675781 510.265625 958.261719 507.351562 959.230469 504.105469 "
     id="path217" />
  <path
     fill-rule="nonzero"
     fill="rgb(92.941284%, 11.764526%, 21.176147%)"
     fill-opacity="1"
     d="M 1241.109375 480.597656 C 1243.007812 482.945312 1243.957031 486.363281 1243.957031 490.851562 L 1243.957031 519.949219 L 1256.277344 519.949219 L 1256.277344 489.710938 C 1256.277344 484.601562 1255.503906 480.339844 1253.949219 476.921875 C 1252.394531 473.507812 1250.132812 470.917969 1247.167969 469.15625 C 1244.195312 467.394531 1240.574219 466.515625 1236.292969 466.515625 C 1232.566406 466.515625 1229.214844 467.363281 1226.25 469.054688 C 1223.28125 470.746094 1220.933594 473.007812 1219.207031 475.835938 L 1219.207031 445.390625 L 1206.78125 445.390625 L 1206.78125 519.949219 L 1219.207031 519.949219 L 1219.207031 492.300781 C 1219.207031 489.054688 1219.792969 486.3125 1220.96875 484.066406 C 1222.140625 481.824219 1223.726562 480.097656 1225.730469 478.890625 C 1227.730469 477.683594 1229.976562 477.078125 1232.460938 477.078125 C 1236.328125 477.078125 1239.210938 478.253906 1241.109375 480.597656 "
     id="path218" />
  <path
     fill-rule="nonzero"
     fill="rgb(13.725281%, 19.607544%, 41.567993%)"
     fill-opacity="1"
     d="M 1182.183594 588.320312 C 1182.183594 590.597656 1181.800781 592.84375 1181.042969 595.050781 C 1180.285156 597.261719 1179.179688 599.230469 1177.730469 600.953125 C 1176.28125 602.679688 1174.554688 604.0625 1172.550781 605.097656 C 1170.550781 606.132812 1168.238281 606.648438 1165.617188 606.648438 C 1163.058594 606.648438 1160.886719 606.234375 1159.089844 605.40625 C 1157.292969 604.578125 1155.933594 603.421875 1155 601.9375 C 1154.070312 600.453125 1153.601562 598.710938 1153.601562 596.710938 C 1153.601562 594.707031 1154.085938 592.945312 1155.050781 591.425781 C 1156.019531 589.910156 1157.605469 588.703125 1159.816406 587.804688 C 1162.023438 586.90625 1164.957031 586.457031 1168.617188 586.457031 L 1182.183594 586.457031 Z M 1180.371094 561.140625 C 1177.296875 559.3125 1173.378906 558.394531 1168.617188 558.394531 C 1165.164062 558.394531 1161.871094 559.035156 1158.726562 560.308594 C 1155.585938 561.589844 1152.964844 563.46875 1150.859375 565.953125 C 1148.75 568.4375 1147.492188 571.511719 1147.078125 575.171875 L 1154.636719 575.171875 C 1155.257812 571.71875 1156.847656 569.097656 1159.402344 567.300781 C 1161.953125 565.507812 1165.027344 564.609375 1168.617188 564.609375 C 1171.65625 564.609375 1174.160156 565.214844 1176.125 566.421875 C 1178.09375 567.628906 1179.59375 569.40625 1180.628906 571.753906 C 1181.664062 574.101562 1182.183594 576.964844 1182.183594 580.347656 L 1168.101562 580.347656 C 1163.75 580.347656 1159.902344 580.96875 1156.554688 582.210938 C 1153.203125 583.453125 1150.617188 585.316406 1148.789062 587.804688 C 1146.957031 590.289062 1146.042969 593.328125 1146.042969 596.917969 C 1146.042969 599.816406 1146.714844 602.472656 1148.0625 604.890625 C 1149.410156 607.304688 1151.480469 609.273438 1154.277344 610.792969 C 1157.074219 612.308594 1160.574219 613.070312 1164.785156 613.070312 C 1167.203125 613.070312 1169.34375 612.773438 1171.207031 612.191406 C 1173.070312 611.605469 1174.710938 610.828125 1176.125 609.859375 C 1177.539062 608.894531 1178.78125 607.753906 1179.851562 606.441406 C 1180.921875 605.132812 1181.800781 603.75 1182.496094 602.300781 L 1182.804688 611.828125 L 1189.429688 611.828125 L 1189.429688 579.625 C 1189.429688 575.480469 1188.6875 571.820312 1187.203125 568.644531 C 1185.71875 565.472656 1183.441406 562.96875 1180.371094 561.140625 "
     id="path219" />
  <path
     fill-rule="nonzero"
     fill="rgb(92.941284%, 11.764526%, 21.176147%)"
     fill-opacity="1"
     d="M 1185.289062 502.035156 C 1184.804688 503.832031 1183.992188 505.382812 1182.851562 506.695312 C 1181.714844 508.007812 1180.332031 508.988281 1178.710938 509.644531 C 1177.089844 510.300781 1175.277344 510.628906 1173.273438 510.628906 C 1171.34375 510.628906 1169.546875 510.25 1167.890625 509.488281 C 1166.234375 508.730469 1164.765625 507.644531 1163.488281 506.226562 C 1162.210938 504.8125 1161.226562 503.070312 1160.539062 501 C 1159.847656 498.929688 1159.503906 496.546875 1159.503906 493.855469 C 1159.503906 490.332031 1160.105469 487.332031 1161.316406 484.84375 C 1162.523438 482.359375 1164.179688 480.460938 1166.285156 479.148438 C 1168.390625 477.839844 1170.722656 477.183594 1173.273438 477.183594 C 1176.242188 477.183594 1178.816406 477.941406 1180.988281 479.460938 C 1183.164062 480.980469 1184.597656 483.050781 1185.289062 485.671875 L 1198.335938 485.671875 C 1197.09375 479.738281 1194.261719 475.058594 1189.84375 471.640625 C 1185.425781 468.226562 1179.972656 466.515625 1173.480469 466.515625 C 1168.304688 466.515625 1163.695312 467.691406 1159.65625 470.035156 C 1155.621094 472.382812 1152.476562 475.613281 1150.234375 479.71875 C 1147.992188 483.828125 1146.871094 488.609375 1146.871094 494.0625 C 1146.871094 499.308594 1147.992188 503.984375 1150.234375 508.09375 C 1152.476562 512.199219 1155.621094 515.410156 1159.65625 517.722656 C 1163.695312 520.035156 1168.269531 521.191406 1173.378906 521.191406 C 1179.9375 521.191406 1185.425781 519.449219 1189.84375 515.960938 C 1194.261719 512.476562 1197.09375 507.832031 1198.335938 502.035156 Z M 1185.289062 502.035156 "
     id="path220" />
  <path
     fill-rule="nonzero"
     fill="rgb(13.725281%, 19.607544%, 41.567993%)"
     fill-opacity="1"
     d="M 1032.558594 596.8125 C 1031.003906 599.917969 1028.847656 602.351562 1026.085938 604.113281 C 1023.324219 605.875 1020.148438 606.753906 1016.558594 606.753906 C 1012.96875 606.753906 1009.792969 605.875 1007.035156 604.113281 C 1004.273438 602.351562 1002.097656 599.902344 1000.507812 596.761719 C 998.921875 593.621094 998.128906 589.945312 998.128906 585.730469 C 998.128906 581.453125 998.921875 577.742188 1000.507812 574.601562 C 1002.097656 571.460938 1004.273438 569.027344 1007.035156 567.300781 C 1009.792969 565.574219 1012.96875 564.710938 1016.558594 564.710938 C 1020.148438 564.710938 1023.324219 565.574219 1026.085938 567.300781 C 1028.847656 569.027344 1031.003906 571.476562 1032.558594 574.652344 C 1034.113281 577.828125 1034.890625 581.523438 1034.890625 585.730469 C 1034.890625 590.011719 1034.113281 593.707031 1032.558594 596.8125 M 1030.382812 562.019531 C 1026.621094 559.601562 1022.21875 558.394531 1017.179688 558.394531 C 1013.9375 558.394531 1011.054688 558.894531 1008.535156 559.894531 C 1006.015625 560.898438 1003.855469 562.210938 1002.0625 563.832031 C 1000.265625 565.453125 998.816406 567.195312 997.714844 569.058594 L 997.09375 559.636719 L 990.464844 559.636719 L 990.464844 634.609375 L 997.714844 634.609375 L 997.714844 602.199219 C 999.507812 605.648438 1002.082031 608.324219 1005.429688 610.222656 C 1008.777344 612.121094 1012.660156 613.070312 1017.078125 613.070312 C 1022.1875 613.070312 1026.605469 611.894531 1030.332031 609.550781 C 1034.058594 607.203125 1036.976562 603.976562 1039.082031 599.867188 C 1041.1875 595.761719 1042.242188 591.082031 1042.242188 585.835938 C 1042.242188 580.589844 1041.207031 575.914062 1039.132812 571.804688 C 1037.0625 567.699219 1034.144531 564.4375 1030.382812 562.019531 "
     id="path221" />
  <path
     fill-rule="nonzero"
     fill="rgb(92.941284%, 11.764526%, 21.176147%)"
     fill-opacity="1"
     d="M 1099.152344 488.882812 C 1099.4375 486.890625 1099.976562 485.144531 1100.777344 483.652344 C 1102.019531 481.339844 1103.710938 479.597656 1105.851562 478.425781 C 1107.992188 477.25 1110.339844 476.664062 1112.894531 476.664062 C 1116.480469 476.664062 1119.484375 477.75 1121.902344 479.925781 C 1124.316406 482.101562 1125.59375 485.085938 1125.734375 488.882812 Z M 1126.355469 469.933594 C 1122.558594 467.65625 1118.105469 466.515625 1112.996094 466.515625 C 1107.75 466.515625 1103.140625 467.691406 1099.175781 470.039062 C 1095.203125 472.382812 1092.132812 475.628906 1089.957031 479.769531 C 1087.78125 483.914062 1086.695312 488.746094 1086.695312 494.269531 C 1086.695312 499.585938 1087.800781 504.277344 1090.007812 508.351562 C 1092.21875 512.425781 1095.289062 515.582031 1099.226562 517.824219 C 1103.160156 520.066406 1107.71875 521.191406 1112.894531 521.191406 C 1116.964844 521.191406 1120.625 520.449219 1123.871094 518.964844 C 1127.113281 517.480469 1129.839844 515.445312 1132.050781 512.855469 C 1134.257812 510.265625 1135.847656 507.351562 1136.8125 504.105469 L 1124.179688 504.105469 C 1123.28125 506.175781 1121.886719 507.832031 1119.988281 509.074219 C 1118.089844 510.316406 1115.691406 510.9375 1112.789062 510.9375 C 1110.167969 510.9375 1107.800781 510.335938 1105.695312 509.128906 C 1103.589844 507.921875 1101.933594 506.140625 1100.726562 503.792969 C 1099.703125 501.804688 1099.117188 499.492188 1098.960938 496.855469 L 1138.054688 496.855469 C 1138.195312 495.960938 1138.265625 495.097656 1138.265625 494.269531 L 1138.265625 491.988281 C 1138.265625 487.226562 1137.226562 482.929688 1135.15625 479.097656 C 1133.085938 475.265625 1130.152344 472.210938 1126.355469 469.933594 "
     id="path222" />
  <path
     fill-rule="nonzero"
     fill="rgb(13.725281%, 19.607544%, 41.567993%)"
     fill-opacity="1"
     d="M 1091.640625 597.382812 C 1089.949219 600.523438 1087.742188 602.886719 1085.015625 604.476562 C 1082.289062 606.0625 1079.300781 606.855469 1076.058594 606.855469 C 1072.882812 606.855469 1069.929688 606.0625 1067.203125 604.476562 C 1064.476562 602.886719 1062.285156 600.523438 1060.628906 597.382812 C 1058.972656 594.242188 1058.144531 590.359375 1058.144531 585.734375 C 1058.144531 581.039062 1058.988281 577.15625 1060.679688 574.082031 C 1062.371094 571.011719 1064.597656 568.683594 1067.359375 567.09375 C 1070.121094 565.503906 1073.054688 564.710938 1076.160156 564.710938 C 1079.40625 564.710938 1082.390625 565.488281 1085.117188 567.042969 C 1087.84375 568.59375 1090.039062 570.925781 1091.695312 574.03125 C 1093.351562 577.136719 1094.179688 581.039062 1094.179688 585.734375 C 1094.179688 590.359375 1093.332031 594.242188 1091.640625 597.382812 M 1089.3125 561.757812 C 1085.515625 559.519531 1081.132812 558.394531 1076.160156 558.394531 C 1071.398438 558.394531 1067.082031 559.519531 1063.21875 561.757812 C 1059.351562 564.003906 1056.296875 567.164062 1054.050781 571.234375 C 1051.808594 575.308594 1050.6875 580.175781 1050.6875 585.835938 C 1050.6875 591.289062 1051.789062 596.070312 1054 600.175781 C 1056.210938 604.285156 1059.230469 607.460938 1063.0625 609.703125 C 1066.894531 611.945312 1071.191406 613.070312 1075.953125 613.070312 C 1080.925781 613.070312 1085.324219 611.945312 1089.15625 609.703125 C 1092.988281 607.460938 1096.023438 604.285156 1098.269531 600.175781 C 1100.511719 596.070312 1101.632812 591.289062 1101.632812 585.835938 C 1101.632812 580.175781 1100.53125 575.308594 1098.320312 571.234375 C 1096.109375 567.164062 1093.109375 564.003906 1089.3125 561.757812 "
     id="path223" />
  <path
     fill-rule="nonzero"
     fill="rgb(13.725281%, 19.607544%, 41.567993%)"
     fill-opacity="1"
     d="M 1239.695312 543.769531 L 1238.132812 543.769531 C 1235.652344 543.769531 1233.640625 545.777344 1233.640625 548.261719 L 1233.640625 549.820312 C 1233.640625 552.300781 1235.652344 554.3125 1238.132812 554.3125 L 1239.695312 554.3125 C 1242.175781 554.3125 1244.1875 552.300781 1244.1875 549.820312 L 1244.1875 548.261719 C 1244.1875 545.777344 1242.175781 543.769531 1239.695312 543.769531 "
     id="path224" />
  <path
     fill-rule="nonzero"
     fill="rgb(13.725281%, 19.607544%, 41.567993%)"
     fill-opacity="1"
     d="M 1121.960938 563.574219 C 1120.097656 565.230469 1118.609375 567.265625 1117.507812 569.683594 L 1116.988281 559.636719 L 1110.363281 559.636719 L 1110.363281 611.828125 L 1117.609375 611.828125 L 1117.609375 584.179688 C 1117.609375 580.660156 1118.09375 577.726562 1119.0625 575.378906 C 1120.027344 573.03125 1121.304688 571.167969 1122.894531 569.785156 C 1124.480469 568.40625 1126.308594 567.421875 1128.378906 566.835938 C 1130.453125 566.25 1132.589844 565.953125 1134.800781 565.953125 L 1137.597656 565.953125 L 1137.597656 558.394531 C 1134.28125 558.394531 1131.316406 558.84375 1128.691406 559.742188 C 1126.066406 560.640625 1123.824219 561.914062 1121.960938 563.574219 "
     id="path225" />
  <path
     fill-rule="nonzero"
     fill="rgb(13.725281%, 19.607544%, 41.567993%)"
     fill-opacity="1"
     d="M 1235.289062 611.828125 L 1242.539062 611.828125 L 1242.539062 559.636719 L 1235.289062 559.636719 Z M 1235.289062 611.828125 "
     id="path226" />
  <g
     clip-path="url(#clip-0)"
     id="g228">
    <g
       clip-path="url(#clip-1)"
       id="g227">
      <path
         fill-rule="nonzero"
         fill="url(#linear-pattern-0)"
         d="M 564.945312 448.925781 L 564.945312 613.117188 L 770.222656 613.117188 L 770.222656 448.925781 Z M 564.945312 448.925781 "
         id="path227" />
    </g>
  </g>
</svg>
