<?xml version="1.0" encoding="UTF-8" standalone="no"?>
<svg
   width="1920pt"
   height="1080pt"
   viewBox="0 0 1920 1080"
   version="1.1"
   id="svg208"
   xmlns="http://www.w3.org/2000/svg"
   xmlns:svg="http://www.w3.org/2000/svg">
  <defs
     id="defs188">
    <clipPath
       id="clip-0">
      <path
         clip-rule="nonzero"
         d="M 1122 454 L 1328 454 L 1328 619 L 1122 619 Z M 1122 454 "
         id="path1" />
    </clipPath>
    <clipPath
       id="clip-1">
      <path
         clip-rule="nonzero"
         d="M 1173.441406 461.078125 C 1169.125 466.425781 1168.34375 473.714844 1167.65625 480.546875 C 1167.414062 482.816406 1167.09375 485.316406 1166.34375 487.984375 C 1164.886719 493.152344 1160.828125 497.21875 1155.664062 498.695312 C 1152.960938 499.464844 1150.433594 499.792969 1148.136719 500.035156 C 1141.285156 500.722656 1134 501.503906 1128.652344 505.820312 C 1124.585938 509.121094 1122.128906 514.328125 1122.175781 519.550781 C 1122.222656 524.023438 1123.804688 528.214844 1127.195312 531.609375 C 1130.589844 535.003906 1134.78125 536.582031 1139.253906 536.628906 C 1144.476562 536.675781 1149.683594 534.21875 1152.984375 530.152344 C 1157.300781 524.804688 1158.082031 517.519531 1158.773438 510.683594 C 1159.011719 508.417969 1159.332031 505.914062 1160.085938 503.246094 C 1161.535156 498.078125 1165.597656 494.015625 1170.761719 492.539062 C 1173.464844 491.765625 1175.992188 491.441406 1178.289062 491.199219 C 1185.136719 490.511719 1192.425781 489.726562 1197.773438 485.410156 C 1201.839844 482.113281 1204.296875 476.90625 1204.25 471.679688 C 1204.203125 467.207031 1202.621094 463.019531 1199.230469 459.625 C 1195.835938 456.230469 1191.644531 454.648438 1187.171875 454.601562 C 1187.121094 454.601562 1187.074219 454.601562 1187.023438 454.601562 C 1181.851562 454.601562 1176.710938 457.050781 1173.441406 461.078125 M 1255.515625 461.167969 C 1251.199219 466.515625 1250.417969 473.804688 1249.726562 480.636719 C 1249.488281 482.90625 1249.167969 485.40625 1248.414062 488.074219 C 1246.964844 493.242188 1242.902344 497.308594 1237.738281 498.78125 C 1235.035156 499.554688 1232.507812 499.882812 1230.210938 500.121094 C 1223.359375 500.8125 1216.074219 501.59375 1210.726562 505.910156 C 1206.660156 509.210938 1204.203125 514.417969 1204.25 519.640625 C 1204.296875 524.113281 1205.878906 528.304688 1209.269531 531.699219 C 1212.664062 535.089844 1216.855469 536.671875 1221.328125 536.71875 C 1226.550781 536.765625 1231.761719 534.308594 1235.058594 530.242188 C 1239.375 524.894531 1240.15625 517.609375 1240.84375 510.773438 C 1241.085938 508.507812 1241.40625 506.003906 1242.15625 503.335938 C 1243.613281 498.167969 1247.671875 494.105469 1252.835938 492.628906 C 1255.539062 491.855469 1258.070312 491.53125 1260.363281 491.285156 C 1267.214844 490.601562 1274.5 489.816406 1279.847656 485.5 C 1283.914062 482.199219 1286.367188 476.992188 1286.324219 471.769531 C 1286.277344 467.296875 1284.695312 463.105469 1281.304688 459.714844 C 1277.910156 456.320312 1273.71875 454.738281 1269.246094 454.691406 C 1269.195312 454.691406 1269.148438 454.691406 1269.097656 454.691406 C 1263.925781 454.691406 1258.785156 457.140625 1255.515625 461.167969 M 1296.550781 502.179688 C 1292.234375 507.527344 1291.453125 514.816406 1290.765625 521.652344 C 1290.523438 523.917969 1290.203125 526.417969 1289.453125 529.085938 C 1288 534.257812 1283.9375 538.320312 1278.777344 539.796875 C 1276.074219 540.566406 1273.542969 540.894531 1271.246094 541.136719 C 1264.398438 541.824219 1257.109375 542.605469 1251.761719 546.921875 C 1247.695312 550.222656 1245.242188 555.429688 1245.289062 560.652344 C 1245.335938 565.125 1246.914062 569.316406 1250.308594 572.710938 C 1253.699219 576.105469 1257.894531 577.683594 1262.363281 577.730469 C 1267.589844 577.777344 1272.796875 575.324219 1276.097656 571.257812 C 1280.410156 565.90625 1281.195312 558.621094 1281.882812 551.785156 C 1282.121094 549.519531 1282.441406 547.019531 1283.195312 544.351562 C 1284.648438 539.179688 1288.710938 535.117188 1293.871094 533.640625 C 1296.574219 532.867188 1299.105469 532.542969 1301.398438 532.300781 C 1308.25 531.613281 1315.535156 530.832031 1320.886719 526.515625 C 1324.949219 523.214844 1327.40625 518.007812 1327.359375 512.785156 C 1327.3125 508.3125 1325.734375 504.121094 1322.339844 500.726562 C 1318.945312 497.332031 1314.753906 495.753906 1310.28125 495.707031 C 1310.234375 495.703125 1310.1875 495.703125 1310.136719 495.703125 C 1304.964844 495.703125 1299.820312 498.152344 1296.550781 502.179688 M 1180.292969 536.71875 C 1175.820312 536.765625 1171.628906 538.347656 1168.234375 541.738281 C 1164.839844 545.132812 1163.261719 549.324219 1163.214844 553.796875 C 1163.167969 559.019531 1165.621094 564.226562 1169.691406 567.527344 C 1175.039062 571.84375 1182.324219 572.625 1189.175781 573.3125 C 1191.46875 573.554688 1194 573.882812 1196.703125 574.652344 C 1201.863281 576.128906 1205.925781 580.195312 1207.382812 585.363281 C 1208.132812 588.03125 1208.453125 590.53125 1208.691406 592.800781 C 1209.378906 599.632812 1210.160156 606.921875 1214.476562 612.269531 C 1217.777344 616.335938 1222.984375 618.789062 1228.210938 618.746094 C 1232.679688 618.695312 1236.875 617.117188 1240.265625 613.722656 C 1243.660156 610.328125 1245.238281 606.140625 1245.285156 601.667969 C 1245.335938 596.441406 1242.878906 591.234375 1238.8125 587.9375 C 1233.464844 583.617188 1226.175781 582.839844 1219.324219 582.148438 C 1217.03125 581.90625 1214.5 581.582031 1211.800781 580.808594 C 1206.636719 579.335938 1202.574219 575.269531 1201.121094 570.101562 C 1200.371094 567.433594 1200.050781 564.929688 1199.808594 562.664062 C 1199.121094 555.828125 1198.339844 548.542969 1194.023438 543.195312 C 1190.753906 539.164062 1185.613281 536.71875 1180.4375 536.71875 C 1180.390625 536.71875 1180.34375 536.71875 1180.292969 536.71875 "
         id="path2" />
    </clipPath>
    <linearGradient
       id="linear-pattern-0"
       gradientUnits="userSpaceOnUse"
       x1="-0.000224908"
       y1="0"
       x2="1.000223"
       y2="0"
       gradientTransform="matrix(205.184113, 0, 0, 205.184113, 1122.176147, 536.673889)">
      <stop
         offset="0"
         stop-color="rgb(92.941284%, 11.764526%, 21.176147%)"
         stop-opacity="1"
         id="stop2" />
      <stop
         offset="0.125"
         stop-color="rgb(92.941284%, 11.764526%, 21.176147%)"
         stop-opacity="1"
         id="stop3" />
      <stop
         offset="0.128906"
         stop-color="rgb(92.156982%, 11.764526%, 21.568298%)"
         stop-opacity="1"
         id="stop4" />
      <stop
         offset="0.132812"
         stop-color="rgb(91.764832%, 11.764526%, 21.568298%)"
         stop-opacity="1"
         id="stop5" />
      <stop
         offset="0.136719"
         stop-color="rgb(91.372681%, 11.764526%, 21.568298%)"
         stop-opacity="1"
         id="stop6" />
      <stop
         offset="0.140625"
         stop-color="rgb(90.98053%, 12.156677%, 21.568298%)"
         stop-opacity="1"
         id="stop7" />
      <stop
         offset="0.144531"
         stop-color="rgb(90.588379%, 12.156677%, 21.960449%)"
         stop-opacity="1"
         id="stop8" />
      <stop
         offset="0.148438"
         stop-color="rgb(90.196228%, 12.156677%, 21.960449%)"
         stop-opacity="1"
         id="stop9" />
      <stop
         offset="0.152344"
         stop-color="rgb(89.411926%, 12.156677%, 21.960449%)"
         stop-opacity="1"
         id="stop10" />
      <stop
         offset="0.15625"
         stop-color="rgb(89.019775%, 12.156677%, 21.960449%)"
         stop-opacity="1"
         id="stop11" />
      <stop
         offset="0.160156"
         stop-color="rgb(88.627625%, 12.156677%, 22.3526%)"
         stop-opacity="1"
         id="stop12" />
      <stop
         offset="0.164062"
         stop-color="rgb(88.235474%, 12.156677%, 22.3526%)"
         stop-opacity="1"
         id="stop13" />
      <stop
         offset="0.167969"
         stop-color="rgb(87.843323%, 12.156677%, 22.3526%)"
         stop-opacity="1"
         id="stop14" />
      <stop
         offset="0.171875"
         stop-color="rgb(87.451172%, 12.156677%, 22.744751%)"
         stop-opacity="1"
         id="stop15" />
      <stop
         offset="0.175781"
         stop-color="rgb(87.059021%, 12.156677%, 22.744751%)"
         stop-opacity="1"
         id="stop16" />
      <stop
         offset="0.179688"
         stop-color="rgb(86.66687%, 12.548828%, 22.744751%)"
         stop-opacity="1"
         id="stop17" />
      <stop
         offset="0.183594"
         stop-color="rgb(86.274719%, 12.548828%, 22.744751%)"
         stop-opacity="1"
         id="stop18" />
      <stop
         offset="0.1875"
         stop-color="rgb(85.882568%, 12.548828%, 23.136902%)"
         stop-opacity="1"
         id="stop19" />
      <stop
         offset="0.191406"
         stop-color="rgb(85.098267%, 12.548828%, 23.136902%)"
         stop-opacity="1"
         id="stop20" />
      <stop
         offset="0.195312"
         stop-color="rgb(84.706116%, 12.548828%, 23.136902%)"
         stop-opacity="1"
         id="stop21" />
      <stop
         offset="0.199219"
         stop-color="rgb(84.313965%, 12.548828%, 23.529053%)"
         stop-opacity="1"
         id="stop22" />
      <stop
         offset="0.203125"
         stop-color="rgb(83.921814%, 12.548828%, 23.529053%)"
         stop-opacity="1"
         id="stop23" />
      <stop
         offset="0.207031"
         stop-color="rgb(83.529663%, 12.548828%, 23.529053%)"
         stop-opacity="1"
         id="stop24" />
      <stop
         offset="0.210938"
         stop-color="rgb(83.137512%, 12.548828%, 23.529053%)"
         stop-opacity="1"
         id="stop25" />
      <stop
         offset="0.214844"
         stop-color="rgb(82.745361%, 12.940979%, 23.921204%)"
         stop-opacity="1"
         id="stop26" />
      <stop
         offset="0.21875"
         stop-color="rgb(82.35321%, 12.940979%, 23.921204%)"
         stop-opacity="1"
         id="stop27" />
      <stop
         offset="0.222656"
         stop-color="rgb(81.96106%, 12.940979%, 23.921204%)"
         stop-opacity="1"
         id="stop28" />
      <stop
         offset="0.226562"
         stop-color="rgb(81.568909%, 12.940979%, 24.313354%)"
         stop-opacity="1"
         id="stop29" />
      <stop
         offset="0.230469"
         stop-color="rgb(80.784607%, 12.940979%, 24.313354%)"
         stop-opacity="1"
         id="stop30" />
      <stop
         offset="0.234375"
         stop-color="rgb(80.392456%, 12.940979%, 24.313354%)"
         stop-opacity="1"
         id="stop31" />
      <stop
         offset="0.238281"
         stop-color="rgb(80.000305%, 12.940979%, 24.313354%)"
         stop-opacity="1"
         id="stop32" />
      <stop
         offset="0.242188"
         stop-color="rgb(79.608154%, 12.940979%, 24.705505%)"
         stop-opacity="1"
         id="stop33" />
      <stop
         offset="0.246094"
         stop-color="rgb(79.216003%, 12.940979%, 24.705505%)"
         stop-opacity="1"
         id="stop34" />
      <stop
         offset="0.25"
         stop-color="rgb(78.823853%, 13.33313%, 24.705505%)"
         stop-opacity="1"
         id="stop35" />
      <stop
         offset="0.253906"
         stop-color="rgb(78.431702%, 13.33313%, 25.097656%)"
         stop-opacity="1"
         id="stop36" />
      <stop
         offset="0.257812"
         stop-color="rgb(78.039551%, 13.33313%, 25.097656%)"
         stop-opacity="1"
         id="stop37" />
      <stop
         offset="0.261719"
         stop-color="rgb(77.6474%, 13.33313%, 25.097656%)"
         stop-opacity="1"
         id="stop38" />
      <stop
         offset="0.265625"
         stop-color="rgb(77.255249%, 13.33313%, 25.097656%)"
         stop-opacity="1"
         id="stop39" />
      <stop
         offset="0.269531"
         stop-color="rgb(76.470947%, 13.33313%, 25.489807%)"
         stop-opacity="1"
         id="stop40" />
      <stop
         offset="0.273438"
         stop-color="rgb(76.078796%, 13.33313%, 25.489807%)"
         stop-opacity="1"
         id="stop41" />
      <stop
         offset="0.277344"
         stop-color="rgb(75.686646%, 13.33313%, 25.489807%)"
         stop-opacity="1"
         id="stop42" />
      <stop
         offset="0.28125"
         stop-color="rgb(75.294495%, 13.33313%, 25.881958%)"
         stop-opacity="1"
         id="stop43" />
      <stop
         offset="0.285156"
         stop-color="rgb(74.902344%, 13.725281%, 25.881958%)"
         stop-opacity="1"
         id="stop44" />
      <stop
         offset="0.289062"
         stop-color="rgb(74.510193%, 13.725281%, 25.881958%)"
         stop-opacity="1"
         id="stop45" />
      <stop
         offset="0.292969"
         stop-color="rgb(74.118042%, 13.725281%, 25.881958%)"
         stop-opacity="1"
         id="stop46" />
      <stop
         offset="0.296875"
         stop-color="rgb(73.725891%, 13.725281%, 26.274109%)"
         stop-opacity="1"
         id="stop47" />
      <stop
         offset="0.300781"
         stop-color="rgb(73.33374%, 13.725281%, 26.274109%)"
         stop-opacity="1"
         id="stop48" />
      <stop
         offset="0.304688"
         stop-color="rgb(72.941589%, 13.725281%, 26.274109%)"
         stop-opacity="1"
         id="stop49" />
      <stop
         offset="0.308594"
         stop-color="rgb(72.157288%, 13.725281%, 26.66626%)"
         stop-opacity="1"
         id="stop50" />
      <stop
         offset="0.3125"
         stop-color="rgb(71.765137%, 13.725281%, 26.66626%)"
         stop-opacity="1"
         id="stop51" />
      <stop
         offset="0.316406"
         stop-color="rgb(71.372986%, 13.725281%, 26.66626%)"
         stop-opacity="1"
         id="stop52" />
      <stop
         offset="0.320312"
         stop-color="rgb(70.980835%, 14.117432%, 26.66626%)"
         stop-opacity="1"
         id="stop53" />
      <stop
         offset="0.324219"
         stop-color="rgb(70.588684%, 14.117432%, 27.058411%)"
         stop-opacity="1"
         id="stop54" />
      <stop
         offset="0.328125"
         stop-color="rgb(70.196533%, 14.117432%, 27.058411%)"
         stop-opacity="1"
         id="stop55" />
      <stop
         offset="0.332031"
         stop-color="rgb(69.804382%, 14.117432%, 27.058411%)"
         stop-opacity="1"
         id="stop56" />
      <stop
         offset="0.335938"
         stop-color="rgb(69.412231%, 14.117432%, 27.450562%)"
         stop-opacity="1"
         id="stop57" />
      <stop
         offset="0.339844"
         stop-color="rgb(69.020081%, 14.117432%, 27.450562%)"
         stop-opacity="1"
         id="stop58" />
      <stop
         offset="0.34375"
         stop-color="rgb(68.62793%, 14.117432%, 27.450562%)"
         stop-opacity="1"
         id="stop59" />
      <stop
         offset="0.347656"
         stop-color="rgb(67.843628%, 14.117432%, 27.450562%)"
         stop-opacity="1"
         id="stop60" />
      <stop
         offset="0.351562"
         stop-color="rgb(67.451477%, 14.117432%, 27.842712%)"
         stop-opacity="1"
         id="stop61" />
      <stop
         offset="0.355469"
         stop-color="rgb(67.059326%, 14.509583%, 27.842712%)"
         stop-opacity="1"
         id="stop62" />
      <stop
         offset="0.359375"
         stop-color="rgb(66.667175%, 14.509583%, 27.842712%)"
         stop-opacity="1"
         id="stop63" />
      <stop
         offset="0.363281"
         stop-color="rgb(66.275024%, 14.509583%, 27.842712%)"
         stop-opacity="1"
         id="stop64" />
      <stop
         offset="0.367188"
         stop-color="rgb(65.882874%, 14.509583%, 28.234863%)"
         stop-opacity="1"
         id="stop65" />
      <stop
         offset="0.371094"
         stop-color="rgb(65.490723%, 14.509583%, 28.234863%)"
         stop-opacity="1"
         id="stop66" />
      <stop
         offset="0.375"
         stop-color="rgb(65.098572%, 14.509583%, 28.234863%)"
         stop-opacity="1"
         id="stop67" />
      <stop
         offset="0.378906"
         stop-color="rgb(64.706421%, 14.509583%, 28.627014%)"
         stop-opacity="1"
         id="stop68" />
      <stop
         offset="0.382812"
         stop-color="rgb(64.31427%, 14.509583%, 28.627014%)"
         stop-opacity="1"
         id="stop69" />
      <stop
         offset="0.386719"
         stop-color="rgb(63.529968%, 14.509583%, 28.627014%)"
         stop-opacity="1"
         id="stop70" />
      <stop
         offset="0.390625"
         stop-color="rgb(63.137817%, 14.509583%, 28.627014%)"
         stop-opacity="1"
         id="stop71" />
      <stop
         offset="0.394531"
         stop-color="rgb(62.745667%, 14.901733%, 29.019165%)"
         stop-opacity="1"
         id="stop72" />
      <stop
         offset="0.398438"
         stop-color="rgb(62.353516%, 14.901733%, 29.019165%)"
         stop-opacity="1"
         id="stop73" />
      <stop
         offset="0.402344"
         stop-color="rgb(61.961365%, 14.901733%, 29.019165%)"
         stop-opacity="1"
         id="stop74" />
      <stop
         offset="0.40625"
         stop-color="rgb(61.569214%, 14.901733%, 29.411316%)"
         stop-opacity="1"
         id="stop75" />
      <stop
         offset="0.410156"
         stop-color="rgb(61.177063%, 14.901733%, 29.411316%)"
         stop-opacity="1"
         id="stop76" />
      <stop
         offset="0.414062"
         stop-color="rgb(60.784912%, 14.901733%, 29.411316%)"
         stop-opacity="1"
         id="stop77" />
      <stop
         offset="0.417969"
         stop-color="rgb(60.392761%, 14.901733%, 29.411316%)"
         stop-opacity="1"
         id="stop78" />
      <stop
         offset="0.421875"
         stop-color="rgb(60.00061%, 14.901733%, 29.803467%)"
         stop-opacity="1"
         id="stop79" />
      <stop
         offset="0.425781"
         stop-color="rgb(59.216309%, 14.901733%, 29.803467%)"
         stop-opacity="1"
         id="stop80" />
      <stop
         offset="0.429688"
         stop-color="rgb(58.824158%, 15.293884%, 29.803467%)"
         stop-opacity="1"
         id="stop81" />
      <stop
         offset="0.433594"
         stop-color="rgb(58.432007%, 15.293884%, 30.195618%)"
         stop-opacity="1"
         id="stop82" />
      <stop
         offset="0.4375"
         stop-color="rgb(58.039856%, 15.293884%, 30.195618%)"
         stop-opacity="1"
         id="stop83" />
      <stop
         offset="0.441406"
         stop-color="rgb(57.647705%, 15.293884%, 30.195618%)"
         stop-opacity="1"
         id="stop84" />
      <stop
         offset="0.445312"
         stop-color="rgb(57.255554%, 15.293884%, 30.195618%)"
         stop-opacity="1"
         id="stop85" />
      <stop
         offset="0.449219"
         stop-color="rgb(56.863403%, 15.293884%, 30.587769%)"
         stop-opacity="1"
         id="stop86" />
      <stop
         offset="0.453125"
         stop-color="rgb(56.471252%, 15.293884%, 30.587769%)"
         stop-opacity="1"
         id="stop87" />
      <stop
         offset="0.457031"
         stop-color="rgb(56.079102%, 15.293884%, 30.587769%)"
         stop-opacity="1"
         id="stop88" />
      <stop
         offset="0.460938"
         stop-color="rgb(55.686951%, 15.293884%, 30.979919%)"
         stop-opacity="1"
         id="stop89" />
      <stop
         offset="0.464844"
         stop-color="rgb(54.902649%, 15.686035%, 30.979919%)"
         stop-opacity="1"
         id="stop90" />
      <stop
         offset="0.46875"
         stop-color="rgb(54.510498%, 15.686035%, 30.979919%)"
         stop-opacity="1"
         id="stop91" />
      <stop
         offset="0.472656"
         stop-color="rgb(54.118347%, 15.686035%, 30.979919%)"
         stop-opacity="1"
         id="stop92" />
      <stop
         offset="0.476562"
         stop-color="rgb(53.726196%, 15.686035%, 31.37207%)"
         stop-opacity="1"
         id="stop93" />
      <stop
         offset="0.480469"
         stop-color="rgb(53.334045%, 15.686035%, 31.37207%)"
         stop-opacity="1"
         id="stop94" />
      <stop
         offset="0.484375"
         stop-color="rgb(52.941895%, 15.686035%, 31.37207%)"
         stop-opacity="1"
         id="stop95" />
      <stop
         offset="0.488281"
         stop-color="rgb(52.549744%, 15.686035%, 31.764221%)"
         stop-opacity="1"
         id="stop96" />
      <stop
         offset="0.492188"
         stop-color="rgb(52.157593%, 15.686035%, 31.764221%)"
         stop-opacity="1"
         id="stop97" />
      <stop
         offset="0.496094"
         stop-color="rgb(51.765442%, 15.686035%, 31.764221%)"
         stop-opacity="1"
         id="stop98" />
      <stop
         offset="0.5"
         stop-color="rgb(51.373291%, 16.078186%, 31.764221%)"
         stop-opacity="1"
         id="stop99" />
      <stop
         offset="0.503906"
         stop-color="rgb(50.588989%, 16.078186%, 32.156372%)"
         stop-opacity="1"
         id="stop100" />
      <stop
         offset="0.507812"
         stop-color="rgb(50.196838%, 16.078186%, 32.156372%)"
         stop-opacity="1"
         id="stop101" />
      <stop
         offset="0.511719"
         stop-color="rgb(49.803162%, 16.078186%, 32.156372%)"
         stop-opacity="1"
         id="stop102" />
      <stop
         offset="0.515625"
         stop-color="rgb(49.411011%, 16.078186%, 32.548523%)"
         stop-opacity="1"
         id="stop103" />
      <stop
         offset="0.519531"
         stop-color="rgb(49.01886%, 16.078186%, 32.548523%)"
         stop-opacity="1"
         id="stop104" />
      <stop
         offset="0.523437"
         stop-color="rgb(48.626709%, 16.078186%, 32.548523%)"
         stop-opacity="1"
         id="stop105" />
      <stop
         offset="0.527344"
         stop-color="rgb(48.234558%, 16.078186%, 32.548523%)"
         stop-opacity="1"
         id="stop106" />
      <stop
         offset="0.53125"
         stop-color="rgb(47.842407%, 16.078186%, 32.940674%)"
         stop-opacity="1"
         id="stop107" />
      <stop
         offset="0.535156"
         stop-color="rgb(47.450256%, 16.470337%, 32.940674%)"
         stop-opacity="1"
         id="stop108" />
      <stop
         offset="0.539063"
         stop-color="rgb(47.058105%, 16.470337%, 32.940674%)"
         stop-opacity="1"
         id="stop109" />
      <stop
         offset="0.542969"
         stop-color="rgb(46.273804%, 16.470337%, 33.332825%)"
         stop-opacity="1"
         id="stop110" />
      <stop
         offset="0.546875"
         stop-color="rgb(45.881653%, 16.470337%, 33.332825%)"
         stop-opacity="1"
         id="stop111" />
      <stop
         offset="0.550781"
         stop-color="rgb(45.489502%, 16.470337%, 33.332825%)"
         stop-opacity="1"
         id="stop112" />
      <stop
         offset="0.554688"
         stop-color="rgb(45.097351%, 16.470337%, 33.332825%)"
         stop-opacity="1"
         id="stop113" />
      <stop
         offset="0.558594"
         stop-color="rgb(44.7052%, 16.470337%, 33.724976%)"
         stop-opacity="1"
         id="stop114" />
      <stop
         offset="0.5625"
         stop-color="rgb(44.313049%, 16.470337%, 33.724976%)"
         stop-opacity="1"
         id="stop115" />
      <stop
         offset="0.566406"
         stop-color="rgb(43.920898%, 16.470337%, 33.724976%)"
         stop-opacity="1"
         id="stop116" />
      <stop
         offset="0.570312"
         stop-color="rgb(43.528748%, 16.862488%, 34.117126%)"
         stop-opacity="1"
         id="stop117" />
      <stop
         offset="0.574219"
         stop-color="rgb(43.136597%, 16.862488%, 34.117126%)"
         stop-opacity="1"
         id="stop118" />
      <stop
         offset="0.578125"
         stop-color="rgb(42.744446%, 16.862488%, 34.117126%)"
         stop-opacity="1"
         id="stop119" />
      <stop
         offset="0.582031"
         stop-color="rgb(41.960144%, 16.862488%, 34.117126%)"
         stop-opacity="1"
         id="stop120" />
      <stop
         offset="0.585937"
         stop-color="rgb(41.567993%, 16.862488%, 34.509277%)"
         stop-opacity="1"
         id="stop121" />
      <stop
         offset="0.589844"
         stop-color="rgb(41.175842%, 16.862488%, 34.509277%)"
         stop-opacity="1"
         id="stop122" />
      <stop
         offset="0.59375"
         stop-color="rgb(40.783691%, 16.862488%, 34.509277%)"
         stop-opacity="1"
         id="stop123" />
      <stop
         offset="0.597656"
         stop-color="rgb(40.391541%, 16.862488%, 34.509277%)"
         stop-opacity="1"
         id="stop124" />
      <stop
         offset="0.601563"
         stop-color="rgb(39.99939%, 16.862488%, 34.901428%)"
         stop-opacity="1"
         id="stop125" />
      <stop
         offset="0.605469"
         stop-color="rgb(39.607239%, 16.862488%, 34.901428%)"
         stop-opacity="1"
         id="stop126" />
      <stop
         offset="0.609375"
         stop-color="rgb(39.215088%, 17.254639%, 34.901428%)"
         stop-opacity="1"
         id="stop127" />
      <stop
         offset="0.613281"
         stop-color="rgb(38.822937%, 17.254639%, 35.293579%)"
         stop-opacity="1"
         id="stop128" />
      <stop
         offset="0.617188"
         stop-color="rgb(38.430786%, 17.254639%, 35.293579%)"
         stop-opacity="1"
         id="stop129" />
      <stop
         offset="0.621094"
         stop-color="rgb(37.646484%, 17.254639%, 35.293579%)"
         stop-opacity="1"
         id="stop130" />
      <stop
         offset="0.625"
         stop-color="rgb(37.254333%, 17.254639%, 35.293579%)"
         stop-opacity="1"
         id="stop131" />
      <stop
         offset="0.628906"
         stop-color="rgb(36.862183%, 17.254639%, 35.68573%)"
         stop-opacity="1"
         id="stop132" />
      <stop
         offset="0.632812"
         stop-color="rgb(36.470032%, 17.254639%, 35.68573%)"
         stop-opacity="1"
         id="stop133" />
      <stop
         offset="0.636719"
         stop-color="rgb(36.077881%, 17.254639%, 35.68573%)"
         stop-opacity="1"
         id="stop134" />
      <stop
         offset="0.640625"
         stop-color="rgb(35.68573%, 17.254639%, 36.077881%)"
         stop-opacity="1"
         id="stop135" />
      <stop
         offset="0.644531"
         stop-color="rgb(35.293579%, 17.64679%, 36.077881%)"
         stop-opacity="1"
         id="stop136" />
      <stop
         offset="0.648437"
         stop-color="rgb(34.901428%, 17.64679%, 36.077881%)"
         stop-opacity="1"
         id="stop137" />
      <stop
         offset="0.652344"
         stop-color="rgb(34.509277%, 17.64679%, 36.077881%)"
         stop-opacity="1"
         id="stop138" />
      <stop
         offset="0.65625"
         stop-color="rgb(34.117126%, 17.64679%, 36.470032%)"
         stop-opacity="1"
         id="stop139" />
      <stop
         offset="0.660156"
         stop-color="rgb(33.332825%, 17.64679%, 36.470032%)"
         stop-opacity="1"
         id="stop140" />
      <stop
         offset="0.664063"
         stop-color="rgb(32.940674%, 17.64679%, 36.470032%)"
         stop-opacity="1"
         id="stop141" />
      <stop
         offset="0.667969"
         stop-color="rgb(32.548523%, 17.64679%, 36.862183%)"
         stop-opacity="1"
         id="stop142" />
      <stop
         offset="0.671875"
         stop-color="rgb(32.156372%, 17.64679%, 36.862183%)"
         stop-opacity="1"
         id="stop143" />
      <stop
         offset="0.675781"
         stop-color="rgb(31.764221%, 17.64679%, 36.862183%)"
         stop-opacity="1"
         id="stop144" />
      <stop
         offset="0.679688"
         stop-color="rgb(31.37207%, 18.03894%, 36.862183%)"
         stop-opacity="1"
         id="stop145" />
      <stop
         offset="0.683594"
         stop-color="rgb(30.979919%, 18.03894%, 37.254333%)"
         stop-opacity="1"
         id="stop146" />
      <stop
         offset="0.6875"
         stop-color="rgb(30.587769%, 18.03894%, 37.254333%)"
         stop-opacity="1"
         id="stop147" />
      <stop
         offset="0.691406"
         stop-color="rgb(30.195618%, 18.03894%, 37.254333%)"
         stop-opacity="1"
         id="stop148" />
      <stop
         offset="0.695312"
         stop-color="rgb(29.803467%, 18.03894%, 37.646484%)"
         stop-opacity="1"
         id="stop149" />
      <stop
         offset="0.699219"
         stop-color="rgb(29.019165%, 18.03894%, 37.646484%)"
         stop-opacity="1"
         id="stop150" />
      <stop
         offset="0.703125"
         stop-color="rgb(28.627014%, 18.03894%, 37.646484%)"
         stop-opacity="1"
         id="stop151" />
      <stop
         offset="0.707031"
         stop-color="rgb(28.234863%, 18.03894%, 37.646484%)"
         stop-opacity="1"
         id="stop152" />
      <stop
         offset="0.710937"
         stop-color="rgb(27.842712%, 18.03894%, 38.038635%)"
         stop-opacity="1"
         id="stop153" />
      <stop
         offset="0.714844"
         stop-color="rgb(27.450562%, 18.431091%, 38.038635%)"
         stop-opacity="1"
         id="stop154" />
      <stop
         offset="0.71875"
         stop-color="rgb(27.058411%, 18.431091%, 38.038635%)"
         stop-opacity="1"
         id="stop155" />
      <stop
         offset="0.722656"
         stop-color="rgb(26.66626%, 18.431091%, 38.430786%)"
         stop-opacity="1"
         id="stop156" />
      <stop
         offset="0.726563"
         stop-color="rgb(26.274109%, 18.431091%, 38.430786%)"
         stop-opacity="1"
         id="stop157" />
      <stop
         offset="0.730469"
         stop-color="rgb(25.881958%, 18.431091%, 38.430786%)"
         stop-opacity="1"
         id="stop158" />
      <stop
         offset="0.734375"
         stop-color="rgb(25.489807%, 18.431091%, 38.430786%)"
         stop-opacity="1"
         id="stop159" />
      <stop
         offset="0.738281"
         stop-color="rgb(24.705505%, 18.431091%, 38.822937%)"
         stop-opacity="1"
         id="stop160" />
      <stop
         offset="0.742188"
         stop-color="rgb(24.313354%, 18.431091%, 38.822937%)"
         stop-opacity="1"
         id="stop161" />
      <stop
         offset="0.746094"
         stop-color="rgb(23.921204%, 18.431091%, 38.822937%)"
         stop-opacity="1"
         id="stop162" />
      <stop
         offset="0.75"
         stop-color="rgb(23.529053%, 18.823242%, 39.215088%)"
         stop-opacity="1"
         id="stop163" />
      <stop
         offset="0.753906"
         stop-color="rgb(23.136902%, 18.823242%, 39.215088%)"
         stop-opacity="1"
         id="stop164" />
      <stop
         offset="0.757812"
         stop-color="rgb(22.744751%, 18.823242%, 39.215088%)"
         stop-opacity="1"
         id="stop165" />
      <stop
         offset="0.761719"
         stop-color="rgb(22.3526%, 18.823242%, 39.215088%)"
         stop-opacity="1"
         id="stop166" />
      <stop
         offset="0.765625"
         stop-color="rgb(21.960449%, 18.823242%, 39.607239%)"
         stop-opacity="1"
         id="stop167" />
      <stop
         offset="0.769531"
         stop-color="rgb(21.568298%, 18.823242%, 39.607239%)"
         stop-opacity="1"
         id="stop168" />
      <stop
         offset="0.773437"
         stop-color="rgb(21.176147%, 18.823242%, 39.607239%)"
         stop-opacity="1"
         id="stop169" />
      <stop
         offset="0.777344"
         stop-color="rgb(20.391846%, 18.823242%, 39.99939%)"
         stop-opacity="1"
         id="stop170" />
      <stop
         offset="0.78125"
         stop-color="rgb(19.999695%, 18.823242%, 39.99939%)"
         stop-opacity="1"
         id="stop171" />
      <stop
         offset="0.785156"
         stop-color="rgb(19.607544%, 18.823242%, 39.99939%)"
         stop-opacity="1"
         id="stop172" />
      <stop
         offset="0.789063"
         stop-color="rgb(19.215393%, 19.215393%, 39.99939%)"
         stop-opacity="1"
         id="stop173" />
      <stop
         offset="0.792969"
         stop-color="rgb(18.823242%, 19.215393%, 40.391541%)"
         stop-opacity="1"
         id="stop174" />
      <stop
         offset="0.796875"
         stop-color="rgb(18.431091%, 19.215393%, 40.391541%)"
         stop-opacity="1"
         id="stop175" />
      <stop
         offset="0.800781"
         stop-color="rgb(18.03894%, 19.215393%, 40.391541%)"
         stop-opacity="1"
         id="stop176" />
      <stop
         offset="0.804688"
         stop-color="rgb(17.64679%, 19.215393%, 40.391541%)"
         stop-opacity="1"
         id="stop177" />
      <stop
         offset="0.808594"
         stop-color="rgb(17.254639%, 19.215393%, 40.783691%)"
         stop-opacity="1"
         id="stop178" />
      <stop
         offset="0.8125"
         stop-color="rgb(16.862488%, 19.215393%, 40.783691%)"
         stop-opacity="1"
         id="stop179" />
      <stop
         offset="0.816406"
         stop-color="rgb(16.078186%, 19.215393%, 40.783691%)"
         stop-opacity="1"
         id="stop180" />
      <stop
         offset="0.820312"
         stop-color="rgb(15.686035%, 19.215393%, 41.175842%)"
         stop-opacity="1"
         id="stop181" />
      <stop
         offset="0.824219"
         stop-color="rgb(15.293884%, 19.607544%, 41.175842%)"
         stop-opacity="1"
         id="stop182" />
      <stop
         offset="0.828125"
         stop-color="rgb(14.901733%, 19.607544%, 41.175842%)"
         stop-opacity="1"
         id="stop183" />
      <stop
         offset="0.832031"
         stop-color="rgb(14.509583%, 19.607544%, 41.175842%)"
         stop-opacity="1"
         id="stop184" />
      <stop
         offset="0.835937"
         stop-color="rgb(14.117432%, 19.607544%, 41.567993%)"
         stop-opacity="1"
         id="stop185" />
      <stop
         offset="0.84375"
         stop-color="rgb(13.725281%, 19.607544%, 41.567993%)"
         stop-opacity="1"
         id="stop186" />
      <stop
         offset="0.875"
         stop-color="rgb(13.725281%, 19.607544%, 41.567993%)"
         stop-opacity="1"
         id="stop187" />
      <stop
         offset="1"
         stop-color="rgb(13.725281%, 19.607544%, 41.567993%)"
         stop-opacity="1"
         id="stop188" />
    </linearGradient>
  </defs>
  <path
     fill-rule="nonzero"
     fill="rgb(13.725281%, 19.607544%, 41.567993%)"
     fill-opacity="1"
     d="M 763.285156 568.660156 C 766.78125 568.660156 769.613281 565.824219 769.613281 562.328125 C 769.613281 558.832031 766.78125 556 763.285156 556 C 759.789062 556 756.957031 558.832031 756.957031 562.328125 C 756.957031 565.824219 759.789062 568.660156 763.285156 568.660156 "
     id="path188" />
  <path
     fill-rule="nonzero"
     fill="rgb(92.941284%, 11.764526%, 21.176147%)"
     fill-opacity="1"
     d="M 822.050781 485.734375 C 823.851562 484.183594 824.75 482.046875 824.75 479.324219 C 824.75 476.609375 823.445312 474.292969 820.832031 472.386719 L 815.851562 468.679688 L 824.328125 464.546875 L 824.328125 456.390625 L 806.953125 464.863281 L 806.953125 471.007812 L 815.109375 476.941406 C 816.097656 477.71875 816.59375 478.390625 816.59375 478.953125 C 816.59375 479.800781 815.851562 480.226562 814.367188 480.226562 L 805.894531 480.226562 L 805.894531 488.066406 L 814.6875 488.066406 C 817.792969 488.066406 820.246094 487.289062 822.050781 485.734375 "
     id="path189" />
  <path
     fill-rule="nonzero"
     fill="rgb(13.725281%, 19.607544%, 41.567993%)"
     fill-opacity="1"
     d="M 770.882812 562.328125 C 770.882812 565.824219 773.714844 568.660156 777.210938 568.660156 C 780.707031 568.660156 783.539062 565.824219 783.539062 562.328125 C 783.539062 558.832031 780.707031 556 777.210938 556 C 773.714844 556 770.882812 558.832031 770.882812 562.328125 "
     id="path190" />
  <path
     fill-rule="nonzero"
     fill="rgb(13.725281%, 19.607544%, 41.567993%)"
     fill-opacity="1"
     d="M 769.617188 556 C 773.109375 556 775.945312 553.164062 775.945312 549.667969 C 775.945312 546.171875 773.109375 543.339844 769.617188 543.339844 C 766.121094 543.339844 763.285156 546.171875 763.285156 549.667969 C 763.285156 553.164062 766.121094 556 769.617188 556 "
     id="path191" />
  <path
     fill-rule="nonzero"
     fill="rgb(92.941284%, 11.764526%, 21.176147%)"
     fill-opacity="1"
     d="M 987.339844 527.769531 C 983.84375 527.769531 981.007812 530.605469 981.007812 534.101562 C 981.007812 537.59375 983.84375 540.429688 987.339844 540.429688 C 990.835938 540.429688 993.667969 537.59375 993.667969 534.101562 C 993.667969 530.605469 990.835938 527.769531 987.339844 527.769531 "
     id="path192" />
  <path
     fill-rule="nonzero"
     fill="rgb(92.941284%, 11.764526%, 21.176147%)"
     fill-opacity="1"
     d="M 1042.136719 488.488281 C 1044.042969 486.582031 1046.480469 485.628906 1049.445312 485.628906 C 1052.410156 485.628906 1054.847656 486.582031 1056.753906 488.488281 C 1058.664062 490.394531 1059.617188 492.886719 1059.617188 495.957031 C 1059.617188 499.03125 1058.664062 501.519531 1056.753906 503.425781 C 1054.847656 505.332031 1052.410156 506.285156 1049.445312 506.285156 C 1046.480469 506.285156 1044.042969 505.332031 1042.136719 503.425781 C 1040.230469 501.519531 1039.277344 499.03125 1039.277344 495.957031 C 1039.277344 492.886719 1040.230469 490.394531 1042.136719 488.488281 M 951.984375 513.066406 C 954.453125 515.539062 957.296875 517.289062 960.511719 518.308594 C 963.722656 519.335938 967.34375 519.847656 971.367188 519.847656 L 974.546875 519.847656 C 984.363281 519.847656 990.898438 517.726562 994.148438 513.492188 C 997.394531 517.726562 1003.925781 519.847656 1013.746094 519.847656 L 1016.921875 519.847656 C 1023.417969 519.847656 1028.539062 517.660156 1032.285156 513.277344 C 1034.261719 515.679688 1036.699219 517.550781 1039.59375 518.894531 C 1042.488281 520.234375 1045.773438 520.90625 1049.445312 520.90625 C 1054.109375 520.90625 1058.167969 519.847656 1061.628906 517.726562 C 1065.089844 515.609375 1067.753906 512.679688 1069.625 508.933594 C 1071.496094 505.191406 1072.433594 500.953125 1072.433594 496.222656 C 1072.433594 491.347656 1071.445312 487.078125 1069.46875 483.40625 C 1067.492188 479.730469 1064.769531 476.855469 1061.3125 474.769531 C 1057.851562 472.6875 1053.875 471.644531 1049.394531 471.644531 C 1044.90625 471.644531 1040.933594 472.703125 1037.476562 474.824219 C 1034.015625 476.941406 1031.3125 479.820312 1029.371094 483.457031 C 1027.425781 487.09375 1026.457031 491.171875 1026.457031 495.691406 C 1026.457031 498.730469 1025.734375 500.917969 1024.285156 502.261719 C 1022.835938 503.601562 1020.558594 504.273438 1017.453125 504.273438 L 1013.746094 504.273438 C 1008.800781 504.273438 1005.410156 503.515625 1003.574219 501.996094 C 1001.738281 500.476562 1000.820312 497.882812 1000.820312 494.210938 L 1000.820312 473.953125 L 987.472656 473.953125 L 987.472656 494.210938 C 987.472656 497.882812 986.554688 500.476562 984.71875 501.996094 C 982.878906 503.515625 979.492188 504.273438 974.546875 504.273438 L 971.367188 504.273438 C 967.625 504.273438 964.464844 503.320312 961.886719 501.414062 C 959.308594 499.507812 956.890625 495.800781 954.628906 490.289062 L 943.191406 462.003906 L 930.476562 467.832031 L 944.777344 501.625 C 943.226562 503.390625 940.613281 504.273438 936.941406 504.273438 L 910.984375 504.273438 L 910.984375 519.847656 L 935.984375 519.847656 C 943.613281 519.847656 948.945312 517.585938 951.984375 513.066406 "
     id="path193" />
  <path
     fill-rule="nonzero"
     fill="rgb(13.725281%, 19.607544%, 41.567993%)"
     fill-opacity="1"
     d="M 629.121094 593.984375 C 632.617188 593.984375 635.453125 591.148438 635.453125 587.652344 C 635.453125 584.15625 632.617188 581.324219 629.121094 581.324219 C 625.625 581.324219 622.792969 584.15625 622.792969 587.652344 C 622.792969 591.148438 625.625 593.984375 629.121094 593.984375 "
     id="path194" />
  <path
     fill-rule="nonzero"
     fill="rgb(92.941284%, 11.764526%, 21.176147%)"
     fill-opacity="1"
     d="M 878.691406 467.261719 C 882.1875 467.261719 885.023438 464.429688 885.023438 460.933594 C 885.023438 457.4375 882.1875 454.601562 878.691406 454.601562 C 875.195312 454.601562 872.363281 457.4375 872.363281 460.933594 C 872.363281 464.429688 875.195312 467.261719 878.691406 467.261719 "
     id="path195" />
  <path
     fill-rule="nonzero"
     fill="rgb(92.941284%, 11.764526%, 21.176147%)"
     fill-opacity="1"
     d="M 892.617188 467.261719 C 896.113281 467.261719 898.949219 464.429688 898.949219 460.933594 C 898.949219 457.4375 896.113281 454.601562 892.617188 454.601562 C 889.121094 454.601562 886.289062 457.4375 886.289062 460.933594 C 886.289062 464.429688 889.121094 467.261719 892.617188 467.261719 "
     id="path196" />
  <path
     fill-rule="nonzero"
     fill="rgb(13.725281%, 19.607544%, 41.567993%)"
     fill-opacity="1"
     d="M 832.273438 605.507812 C 832.273438 614.335938 830.152344 620.972656 825.917969 625.421875 C 821.679688 629.871094 815.675781 632.097656 807.90625 632.097656 C 806.070312 632.097656 804.234375 631.988281 802.398438 631.777344 L 803.667969 640.78125 C 804.304688 640.851562 804.957031 640.90625 805.628906 640.941406 C 806.300781 640.976562 807.09375 640.996094 808.011719 640.996094 C 818.113281 640.996094 826.054688 637.902344 831.847656 631.726562 C 837.636719 625.546875 840.535156 616.804688 840.535156 605.507812 L 840.535156 578.492188 L 832.273438 578.492188 Z M 832.273438 605.507812 "
     id="path197" />
  <path
     fill-rule="nonzero"
     fill="rgb(13.725281%, 19.607544%, 41.567993%)"
     fill-opacity="1"
     d="M 679.246094 624.105469 C 675.75 624.105469 672.917969 626.9375 672.917969 630.433594 C 672.917969 633.929688 675.75 636.765625 679.246094 636.765625 C 682.742188 636.765625 685.578125 633.929688 685.578125 630.433594 C 685.578125 626.9375 682.742188 624.105469 679.246094 624.105469 "
     id="path198" />
  <path
     fill-rule="nonzero"
     fill="rgb(13.725281%, 19.607544%, 41.567993%)"
     fill-opacity="1"
     d="M 888.738281 602.433594 C 888.738281 603.492188 888.703125 604.519531 888.632812 605.503906 L 875.496094 605.503906 C 871.679688 605.503906 868.714844 604.5 866.597656 602.488281 C 864.476562 600.472656 863.417969 597.632812 863.417969 593.957031 C 863.417969 590.074219 864.621094 586.933594 867.019531 584.53125 C 869.421875 582.128906 872.457031 580.925781 876.132812 580.925781 C 879.800781 580.925781 882.820312 582.144531 885.1875 584.582031 C 887.554688 587.019531 888.738281 590.144531 888.738281 593.957031 Z M 929.523438 574.253906 L 921.261719 574.253906 L 921.261719 593.324219 C 921.261719 596.5 920.820312 598.976562 919.9375 600.738281 C 919.050781 602.503906 917.550781 603.742188 915.433594 604.445312 C 913.316406 605.152344 910.3125 605.503906 906.429688 605.503906 L 896.578125 605.503906 C 896.644531 604.589844 896.683594 603.636719 896.683594 602.644531 L 896.683594 595.867188 C 896.683594 590.992188 895.816406 586.789062 894.089844 583.257812 C 892.355469 579.726562 889.9375 576.992188 886.832031 575.046875 C 883.722656 573.105469 880.15625 572.132812 876.132812 572.132812 C 872.105469 572.132812 868.539062 573.054688 865.429688 574.890625 C 862.324219 576.726562 859.871094 579.285156 858.066406 582.570312 C 856.265625 585.855469 855.367188 589.652344 855.367188 593.957031 C 855.367188 600.171875 857.203125 605.152344 860.875 608.894531 C 864.546875 612.640625 869.421875 614.511719 875.496094 614.511719 L 887.46875 614.511719 C 885.914062 620.582031 882.945312 625.03125 878.566406 627.859375 C 874.1875 630.683594 868.292969 632.097656 860.875 632.097656 C 859.039062 632.097656 857.203125 631.992188 855.367188 631.777344 L 856.636719 640.785156 C 857.273438 640.851562 857.925781 640.90625 858.597656 640.941406 C 859.269531 640.976562 860.0625 640.996094 860.980469 640.996094 C 870.585938 640.996094 878.285156 638.628906 884.078125 633.898438 C 889.867188 629.164062 893.679688 622.703125 895.515625 614.511719 L 906.640625 614.511719 C 914.621094 614.511719 920.429688 612.886719 924.066406 609.636719 C 927.707031 606.390625 929.523438 601.128906 929.523438 593.851562 Z M 929.523438 574.253906 "
     id="path199" />
  <path
     fill-rule="nonzero"
     fill="rgb(13.725281%, 19.607544%, 41.567993%)"
     fill-opacity="1"
     d="M 957.28125 605.507812 C 957.28125 614.335938 955.160156 620.972656 950.925781 625.421875 C 946.6875 629.871094 940.683594 632.097656 932.914062 632.097656 C 931.078125 632.097656 929.242188 631.988281 927.40625 631.777344 L 928.675781 640.78125 C 929.3125 640.851562 929.964844 640.90625 930.636719 640.941406 C 931.308594 640.976562 932.101562 640.996094 933.019531 640.996094 C 943.121094 640.996094 951.0625 637.902344 956.855469 631.726562 C 962.644531 625.546875 965.542969 616.804688 965.542969 605.507812 L 965.542969 578.492188 L 957.28125 578.492188 Z M 957.28125 605.507812 "
     id="path200" />
  <path
     fill-rule="nonzero"
     fill="rgb(13.725281%, 19.607544%, 41.567993%)"
     fill-opacity="1"
     d="M 1013.746094 602.433594 C 1013.746094 603.492188 1013.710938 604.519531 1013.640625 605.503906 L 1000.503906 605.503906 C 996.6875 605.503906 993.722656 604.5 991.601562 602.488281 C 989.484375 600.472656 988.425781 597.632812 988.425781 593.957031 C 988.425781 590.074219 989.625 586.933594 992.027344 584.53125 C 994.429688 582.128906 997.464844 580.925781 1001.140625 580.925781 C 1004.808594 580.925781 1007.828125 582.144531 1010.195312 584.582031 C 1012.5625 587.019531 1013.746094 590.144531 1013.746094 593.957031 Z M 1029.847656 554.761719 L 1058.027344 592.050781 C 1060.144531 594.875 1061.59375 596.941406 1062.371094 598.25 C 1063.148438 599.558594 1063.535156 600.703125 1063.535156 601.691406 C 1063.535156 603.035156 1062.863281 604.007812 1061.523438 604.605469 C 1060.179688 605.207031 1057.886719 605.503906 1054.636719 605.503906 L 1021.585938 605.503906 C 1021.652344 604.589844 1021.691406 603.636719 1021.691406 602.644531 L 1021.691406 595.867188 C 1021.691406 590.992188 1020.824219 586.789062 1019.09375 583.257812 C 1017.363281 579.726562 1014.945312 576.992188 1011.839844 575.046875 C 1008.730469 573.105469 1005.164062 572.132812 1001.140625 572.132812 C 997.113281 572.132812 993.546875 573.054688 990.4375 574.890625 C 987.332031 576.726562 984.878906 579.285156 983.078125 582.570312 C 981.273438 585.855469 980.375 589.652344 980.375 593.957031 C 980.375 600.171875 982.210938 605.152344 985.882812 608.894531 C 989.554688 612.640625 994.429688 614.511719 1000.503906 614.511719 L 1012.472656 614.511719 C 1010.921875 620.582031 1007.953125 625.03125 1003.574219 627.859375 C 999.195312 630.683594 993.300781 632.097656 985.882812 632.097656 C 984.046875 632.097656 982.210938 631.992188 980.375 631.777344 L 981.644531 640.785156 C 982.28125 640.851562 982.933594 640.90625 983.605469 640.941406 C 984.277344 640.976562 985.070312 640.996094 985.988281 640.996094 C 995.59375 640.996094 1003.292969 638.628906 1009.085938 633.898438 C 1014.875 629.164062 1018.6875 622.703125 1020.523438 614.511719 L 1057.285156 614.511719 C 1061.734375 614.511719 1065.214844 613.449219 1067.722656 611.332031 C 1070.226562 609.214844 1071.480469 606.320312 1071.480469 602.644531 C 1071.480469 600.386719 1070.953125 598.089844 1069.890625 595.757812 C 1068.832031 593.429688 1066.960938 590.5 1064.277344 586.964844 L 1040.125 554.335938 L 1072.414062 537.304688 L 1072.414062 527.769531 L 1029.847656 550.101562 Z M 1029.847656 554.761719 "
     id="path201" />
  <path
     fill-rule="nonzero"
     fill="rgb(92.941284%, 11.764526%, 21.176147%)"
     fill-opacity="1"
     d="M 973.410156 527.769531 C 969.917969 527.769531 967.082031 530.605469 967.082031 534.101562 C 967.082031 537.59375 969.917969 540.429688 973.410156 540.429688 C 976.90625 540.429688 979.742188 537.59375 979.742188 534.101562 C 979.742188 530.605469 976.90625 527.769531 973.410156 527.769531 "
     id="path202" />
  <path
     fill-rule="nonzero"
     fill="rgb(13.725281%, 19.607544%, 41.567993%)"
     fill-opacity="1"
     d="M 804.515625 578.492188 L 796.464844 578.492188 L 796.464844 594.488281 C 796.464844 598.585938 795.601562 601.445312 793.871094 603.070312 C 792.140625 604.695312 789.613281 605.503906 786.292969 605.503906 C 782.695312 605.503906 780.097656 604.695312 778.507812 603.070312 C 776.917969 601.445312 776.125 598.585938 776.125 594.488281 L 776.125 578.492188 L 768.074219 578.492188 L 768.074219 594.488281 C 768.074219 598.585938 767.121094 601.445312 765.214844 603.070312 C 763.308594 604.695312 760.375 605.503906 756.421875 605.503906 C 752.25 605.503906 749.25 604.695312 747.414062 603.070312 C 745.578125 601.445312 744.660156 598.585938 744.660156 594.488281 L 744.660156 578.492188 L 736.609375 578.492188 L 736.609375 594.488281 C 736.609375 597.3125 736.167969 599.539062 735.285156 601.160156 C 734.402344 602.789062 732.867188 603.917969 730.675781 604.554688 C 728.488281 605.1875 725.449219 605.503906 721.566406 605.503906 L 717.964844 605.503906 C 714.078125 605.503906 711.078125 605.1875 708.960938 604.554688 C 706.839844 603.917969 705.359375 602.789062 704.511719 601.160156 C 703.664062 599.539062 703.238281 597.3125 703.238281 594.488281 L 703.238281 578.492188 L 694.976562 578.492188 L 694.976562 594.488281 C 694.976562 597.3125 694.550781 599.539062 693.703125 601.160156 C 692.859375 602.789062 691.375 603.917969 689.253906 604.554688 C 687.136719 605.1875 684.132812 605.503906 680.25 605.503906 L 676.332031 605.503906 C 672.445312 605.503906 669.460938 605.1875 667.378906 604.554688 C 665.292969 603.917969 663.882812 602.789062 663.140625 601.160156 C 662.402344 599.539062 662.03125 597.3125 662.03125 594.488281 L 662.03125 583.789062 L 653.765625 583.789062 L 653.765625 606.566406 C 653.765625 614.476562 651.417969 620.691406 646.722656 625.210938 C 642.023438 629.730469 635.578125 631.992188 627.386719 631.992188 C 619.195312 631.992188 612.730469 629.78125 608 625.367188 C 603.269531 620.953125 600.902344 614.933594 600.902344 607.308594 C 600.902344 603.777344 601.378906 600.261719 602.332031 596.765625 C 603.285156 593.269531 604.46875 590.039062 605.882812 587.074219 L 597.832031 585.90625 C 596.277344 588.734375 595.023438 591.996094 594.070312 595.707031 C 593.117188 599.414062 592.640625 603.28125 592.640625 607.308594 C 592.640625 614.015625 594.085938 619.914062 596.984375 624.996094 C 599.878906 630.082031 603.921875 634.019531 609.113281 636.8125 C 614.304688 639.601562 620.394531 640.996094 627.386719 640.996094 C 633.8125 640.996094 639.464844 639.792969 644.335938 637.394531 C 649.210938 634.992188 653.148438 631.621094 656.148438 627.277344 C 659.152344 622.933594 661.003906 617.757812 661.710938 611.757812 C 665.03125 613.59375 669.902344 614.511719 676.332031 614.511719 L 680.25 614.511719 C 690.277344 614.511719 696.566406 612.25 699.109375 607.730469 C 701.652344 612.25 707.9375 614.511719 717.964844 614.511719 L 721.566406 614.511719 C 731.664062 614.511719 737.988281 612.25 740.53125 607.730469 C 741.730469 609.992188 743.671875 611.6875 746.355469 612.816406 C 749.039062 613.945312 752.394531 614.511719 756.421875 614.511719 C 760.023438 614.511719 763.199219 613.875 765.953125 612.601562 C 768.707031 611.332031 770.722656 609.636719 771.992188 607.519531 C 773.050781 609.707031 774.800781 611.421875 777.238281 612.65625 C 779.671875 613.894531 782.695312 614.511719 786.292969 614.511719 C 792.15625 614.511719 796.660156 612.957031 799.800781 609.847656 C 802.945312 606.742188 804.515625 602.117188 804.515625 595.972656 Z M 804.515625 578.492188 "
     id="path203" />
  <path
     fill-rule="nonzero"
     fill="rgb(13.725281%, 19.607544%, 41.567993%)"
     fill-opacity="1"
     d="M 693.175781 624.105469 C 689.679688 624.105469 686.84375 626.9375 686.84375 630.433594 C 686.84375 633.929688 689.679688 636.765625 693.175781 636.765625 C 696.667969 636.765625 699.503906 633.929688 699.503906 630.433594 C 699.503906 626.9375 696.667969 624.105469 693.175781 624.105469 "
     id="path204" />
  <path
     fill-rule="nonzero"
     fill="rgb(13.725281%, 19.607544%, 41.567993%)"
     fill-opacity="1"
     d="M 914.191406 625.070312 C 910.699219 625.070312 907.863281 627.902344 907.863281 631.398438 C 907.863281 634.894531 910.699219 637.730469 914.191406 637.730469 C 917.6875 637.730469 920.523438 634.894531 920.523438 631.398438 C 920.523438 627.902344 917.6875 625.070312 914.191406 625.070312 "
     id="path205" />
  <path
     fill-rule="nonzero"
     fill="rgb(92.941284%, 11.764526%, 21.176147%)"
     fill-opacity="1"
     d="M 872.953125 519.847656 L 874.542969 519.847656 C 883.371094 519.847656 889.867188 517.851562 894.035156 513.859375 C 898.203125 509.871094 900.285156 503.675781 900.285156 495.269531 L 900.285156 473.953125 L 887.042969 473.953125 L 887.042969 493.574219 C 887.042969 497.53125 886.105469 500.300781 884.234375 501.890625 C 882.363281 503.480469 879.097656 504.273438 874.433594 504.273438 L 871.046875 504.273438 C 866.3125 504.273438 863.027344 503.515625 861.191406 501.996094 C 859.355469 500.476562 858.4375 497.847656 858.4375 494.105469 L 858.4375 439.003906 L 844.773438 439.003906 L 844.773438 492.089844 C 844.773438 496.75 843.695312 499.949219 841.542969 501.679688 C 839.386719 503.410156 835.449219 504.273438 829.730469 504.273438 L 801.019531 504.273438 C 795.371094 504.273438 791.46875 503.410156 789.3125 501.679688 C 787.160156 499.949219 786.082031 496.75 786.082031 492.089844 L 786.082031 473.953125 L 772.839844 473.953125 L 772.839844 495.796875 C 772.839844 503.921875 774.996094 509.960938 779.304688 513.914062 C 783.609375 517.871094 790.179688 519.847656 799.007812 519.847656 L 830.363281 519.847656 C 840.886719 519.847656 847.878906 517.375 851.339844 512.429688 C 854.378906 517.375 860.945312 519.847656 871.046875 519.847656 Z M 872.953125 519.847656 "
     id="path206" />
  <g
     clip-path="url(#clip-0)"
     id="g208">
    <g
       clip-path="url(#clip-1)"
       id="g207">
      <path
         fill-rule="nonzero"
         fill="url(#linear-pattern-0)"
         d="M 1122.128906 454.601562 L 1122.128906 618.789062 L 1327.40625 618.789062 L 1327.40625 454.601562 Z M 1122.128906 454.601562 "
         id="path207" />
    </g>
  </g>
</svg>
